G04 #@! TF.FileFunction,Legend,Top*
%FSLAX46Y46*%
G04 Gerber Fmt 4.6, Leading zero omitted, Abs format (unit mm)*
G04 Created by KiCad (PCBNEW no-vcs-found-product) date Sat 25 Jul 2015 04:50:57 PM PDT*
%MOMM*%
G01*
G04 APERTURE LIST*
%ADD10C,0.100000*%
%ADD11C,0.152400*%
%ADD12C,0.150000*%
G04 APERTURE END LIST*
D10*
D11*
X137020300Y-114096800D02*
X137697633Y-114096800D01*
X137316633Y-114435467D02*
X137401299Y-113758133D01*
X133808258Y-115790133D02*
X133929967Y-115832467D01*
X134141634Y-115832467D01*
X134231592Y-115790133D01*
X134279217Y-115747800D01*
X134332133Y-115663133D01*
X134342717Y-115578467D01*
X134310967Y-115493800D01*
X134273926Y-115451467D01*
X134194550Y-115409133D01*
X134030509Y-115366800D01*
X133951134Y-115324467D01*
X133914092Y-115282133D01*
X133882342Y-115197467D01*
X133892925Y-115112800D01*
X133945842Y-115028133D01*
X133993467Y-114985800D01*
X134083426Y-114943467D01*
X134295092Y-114943467D01*
X134416800Y-114985800D01*
X134750176Y-115366800D02*
X135046509Y-115366800D01*
X135115301Y-115832467D02*
X134691968Y-115832467D01*
X134803093Y-114943467D01*
X135226426Y-114943467D01*
X135496301Y-115832467D02*
X135607426Y-114943467D01*
X136004301Y-115832467D01*
X136115426Y-114943467D01*
X136390591Y-115790133D02*
X136512300Y-115832467D01*
X136723967Y-115832467D01*
X136813925Y-115790133D01*
X136861550Y-115747800D01*
X136914466Y-115663133D01*
X136925050Y-115578467D01*
X136893300Y-115493800D01*
X136856259Y-115451467D01*
X136776883Y-115409133D01*
X136612842Y-115366800D01*
X136533467Y-115324467D01*
X136496425Y-115282133D01*
X136464675Y-115197467D01*
X136475258Y-115112800D01*
X136528175Y-115028133D01*
X136575800Y-114985800D01*
X136665759Y-114943467D01*
X136877425Y-114943467D01*
X136999133Y-114985800D01*
X137332509Y-115366800D02*
X137628842Y-115366800D01*
X137697634Y-115832467D02*
X137274301Y-115832467D01*
X137385426Y-114943467D01*
X137808759Y-114943467D01*
X142856479Y-88921167D02*
X143279813Y-88921167D01*
X142740063Y-89175167D02*
X143147521Y-88286167D01*
X143332729Y-89175167D01*
X143687270Y-88370833D02*
X143734896Y-88328500D01*
X143824854Y-88286167D01*
X144036521Y-88286167D01*
X144115896Y-88328500D01*
X144152937Y-88370833D01*
X144184687Y-88455500D01*
X144174104Y-88540167D01*
X144115896Y-88667167D01*
X143544396Y-89175167D01*
X144094729Y-89175167D01*
X140316479Y-88921167D02*
X140739813Y-88921167D01*
X140200063Y-89175167D02*
X140607521Y-88286167D01*
X140792729Y-89175167D01*
X141554729Y-89175167D02*
X141046729Y-89175167D01*
X141300729Y-89175167D02*
X141411854Y-88286167D01*
X141311313Y-88413167D01*
X141216062Y-88497833D01*
X141126104Y-88540167D01*
X137776479Y-88921167D02*
X138199813Y-88921167D01*
X137660063Y-89175167D02*
X138067521Y-88286167D01*
X138252729Y-89175167D01*
X138829521Y-88286167D02*
X138914188Y-88286167D01*
X138993562Y-88328500D01*
X139030604Y-88370833D01*
X139062354Y-88455500D01*
X139083520Y-88624833D01*
X139057062Y-88836500D01*
X138993562Y-89005833D01*
X138940646Y-89090500D01*
X138893020Y-89132833D01*
X138803063Y-89175167D01*
X138718396Y-89175167D01*
X138639020Y-89132833D01*
X138601979Y-89090500D01*
X138570229Y-89005833D01*
X138549062Y-88836500D01*
X138575520Y-88624833D01*
X138639021Y-88455500D01*
X138691937Y-88370833D01*
X138739562Y-88328500D01*
X138829521Y-88286167D01*
D12*
X142689000Y-110728000D02*
X142689000Y-108728000D01*
X144839000Y-108728000D02*
X144839000Y-110728000D01*
X142240000Y-89789000D02*
X137160000Y-89789000D01*
X145060000Y-89509000D02*
X145060000Y-91059000D01*
X144780000Y-92329000D02*
X142240000Y-92329000D01*
X142240000Y-92329000D02*
X142240000Y-89789000D01*
X137160000Y-89789000D02*
X137160000Y-94869000D01*
X137160000Y-94869000D02*
X142240000Y-94869000D01*
X145060000Y-89509000D02*
X143510000Y-89509000D01*
X144780000Y-94869000D02*
X144780000Y-92329000D01*
X142240000Y-94869000D02*
X144780000Y-94869000D01*
X139037060Y-107908140D02*
X139037060Y-107956400D01*
X139738100Y-110707120D02*
X139037060Y-110707120D01*
X139037060Y-110707120D02*
X139037060Y-110458200D01*
X139037060Y-107908140D02*
X139037060Y-107707480D01*
X139037060Y-107707480D02*
X139738100Y-107707480D01*
X142835000Y-98544000D02*
X142835000Y-97544000D01*
X144185000Y-97544000D02*
X144185000Y-98544000D01*
X140295000Y-98544000D02*
X140295000Y-97544000D01*
X141645000Y-97544000D02*
X141645000Y-98544000D01*
X137755000Y-98544000D02*
X137755000Y-97544000D01*
X139105000Y-97544000D02*
X139105000Y-98544000D01*
X139457200Y-101676400D02*
G75*
G03X139457200Y-101676400I-200000J0D01*
G01*
X138817200Y-101256400D02*
X141837200Y-101256400D01*
X141837200Y-101256400D02*
X141837200Y-105286400D01*
X141837200Y-105286400D02*
X138817200Y-105286400D01*
X138817200Y-105286400D02*
X138817200Y-101256400D01*
X139437300Y-112095300D02*
X139937300Y-112095300D01*
X139937300Y-111145300D02*
X139437300Y-111145300D01*
X145636000Y-103526400D02*
X145636000Y-103026400D01*
X144686000Y-103026400D02*
X144686000Y-103526400D01*
X141097000Y-113030000D02*
X143637000Y-113030000D01*
X138277000Y-112750000D02*
X139827000Y-112750000D01*
X141097000Y-113030000D02*
X141097000Y-115570000D01*
X139827000Y-115850000D02*
X138277000Y-115850000D01*
X138277000Y-115850000D02*
X138277000Y-112750000D01*
X141097000Y-115570000D02*
X143637000Y-115570000D01*
X143637000Y-115570000D02*
X143637000Y-113030000D01*
X143216334Y-107259381D02*
X142883000Y-106783190D01*
X142644905Y-107259381D02*
X142644905Y-106259381D01*
X143025858Y-106259381D01*
X143121096Y-106307000D01*
X143168715Y-106354619D01*
X143216334Y-106449857D01*
X143216334Y-106592714D01*
X143168715Y-106687952D01*
X143121096Y-106735571D01*
X143025858Y-106783190D01*
X142644905Y-106783190D01*
X144168715Y-107259381D02*
X143597286Y-107259381D01*
X143883000Y-107259381D02*
X143883000Y-106259381D01*
X143787762Y-106402238D01*
X143692524Y-106497476D01*
X143597286Y-106545095D01*
X146502381Y-90908095D02*
X145502381Y-90908095D01*
X145502381Y-90527142D01*
X145550000Y-90431904D01*
X145597619Y-90384285D01*
X145692857Y-90336666D01*
X145835714Y-90336666D01*
X145930952Y-90384285D01*
X145978571Y-90431904D01*
X146026190Y-90527142D01*
X146026190Y-90908095D01*
X145502381Y-90003333D02*
X145502381Y-89384285D01*
X145883333Y-89717619D01*
X145883333Y-89574761D01*
X145930952Y-89479523D01*
X145978571Y-89431904D01*
X146073810Y-89384285D01*
X146311905Y-89384285D01*
X146407143Y-89431904D01*
X146454762Y-89479523D01*
X146502381Y-89574761D01*
X146502381Y-89860476D01*
X146454762Y-89955714D01*
X146407143Y-90003333D01*
X137801362Y-107507019D02*
X137706124Y-107459400D01*
X137610886Y-107364162D01*
X137468029Y-107221305D01*
X137372790Y-107173686D01*
X137277552Y-107173686D01*
X137325171Y-107411781D02*
X137229933Y-107364162D01*
X137134695Y-107268924D01*
X137087076Y-107078448D01*
X137087076Y-106745114D01*
X137134695Y-106554638D01*
X137229933Y-106459400D01*
X137325171Y-106411781D01*
X137515648Y-106411781D01*
X137610886Y-106459400D01*
X137706124Y-106554638D01*
X137753743Y-106745114D01*
X137753743Y-107078448D01*
X137706124Y-107268924D01*
X137610886Y-107364162D01*
X137515648Y-107411781D01*
X137325171Y-107411781D01*
X138706124Y-107411781D02*
X138134695Y-107411781D01*
X138420409Y-107411781D02*
X138420409Y-106411781D01*
X138325171Y-106554638D01*
X138229933Y-106649876D01*
X138134695Y-106697495D01*
X143343334Y-100528381D02*
X143010000Y-100052190D01*
X142771905Y-100528381D02*
X142771905Y-99528381D01*
X143152858Y-99528381D01*
X143248096Y-99576000D01*
X143295715Y-99623619D01*
X143343334Y-99718857D01*
X143343334Y-99861714D01*
X143295715Y-99956952D01*
X143248096Y-100004571D01*
X143152858Y-100052190D01*
X142771905Y-100052190D01*
X143724286Y-99623619D02*
X143771905Y-99576000D01*
X143867143Y-99528381D01*
X144105239Y-99528381D01*
X144200477Y-99576000D01*
X144248096Y-99623619D01*
X144295715Y-99718857D01*
X144295715Y-99814095D01*
X144248096Y-99956952D01*
X143676667Y-100528381D01*
X144295715Y-100528381D01*
X140803334Y-100528381D02*
X140470000Y-100052190D01*
X140231905Y-100528381D02*
X140231905Y-99528381D01*
X140612858Y-99528381D01*
X140708096Y-99576000D01*
X140755715Y-99623619D01*
X140803334Y-99718857D01*
X140803334Y-99861714D01*
X140755715Y-99956952D01*
X140708096Y-100004571D01*
X140612858Y-100052190D01*
X140231905Y-100052190D01*
X141136667Y-99528381D02*
X141755715Y-99528381D01*
X141422381Y-99909333D01*
X141565239Y-99909333D01*
X141660477Y-99956952D01*
X141708096Y-100004571D01*
X141755715Y-100099810D01*
X141755715Y-100337905D01*
X141708096Y-100433143D01*
X141660477Y-100480762D01*
X141565239Y-100528381D01*
X141279524Y-100528381D01*
X141184286Y-100480762D01*
X141136667Y-100433143D01*
X138263334Y-100528381D02*
X137930000Y-100052190D01*
X137691905Y-100528381D02*
X137691905Y-99528381D01*
X138072858Y-99528381D01*
X138168096Y-99576000D01*
X138215715Y-99623619D01*
X138263334Y-99718857D01*
X138263334Y-99861714D01*
X138215715Y-99956952D01*
X138168096Y-100004571D01*
X138072858Y-100052190D01*
X137691905Y-100052190D01*
X139120477Y-99861714D02*
X139120477Y-100528381D01*
X138882381Y-99480762D02*
X138644286Y-100195048D01*
X139263334Y-100195048D01*
X139573095Y-105497381D02*
X139573095Y-106306905D01*
X139620714Y-106402143D01*
X139668333Y-106449762D01*
X139763571Y-106497381D01*
X139954048Y-106497381D01*
X140049286Y-106449762D01*
X140096905Y-106402143D01*
X140144524Y-106306905D01*
X140144524Y-105497381D01*
X141144524Y-106497381D02*
X140573095Y-106497381D01*
X140858809Y-106497381D02*
X140858809Y-105497381D01*
X140763571Y-105640238D01*
X140668333Y-105735476D01*
X140573095Y-105783095D01*
X137425134Y-112091743D02*
X137377515Y-112139362D01*
X137234658Y-112186981D01*
X137139420Y-112186981D01*
X136996562Y-112139362D01*
X136901324Y-112044124D01*
X136853705Y-111948886D01*
X136806086Y-111758410D01*
X136806086Y-111615552D01*
X136853705Y-111425076D01*
X136901324Y-111329838D01*
X136996562Y-111234600D01*
X137139420Y-111186981D01*
X137234658Y-111186981D01*
X137377515Y-111234600D01*
X137425134Y-111282219D01*
X138377515Y-112186981D02*
X137806086Y-112186981D01*
X138091800Y-112186981D02*
X138091800Y-111186981D01*
X137996562Y-111329838D01*
X137901324Y-111425076D01*
X137806086Y-111472695D01*
X144994334Y-105538543D02*
X144946715Y-105586162D01*
X144803858Y-105633781D01*
X144708620Y-105633781D01*
X144565762Y-105586162D01*
X144470524Y-105490924D01*
X144422905Y-105395686D01*
X144375286Y-105205210D01*
X144375286Y-105062352D01*
X144422905Y-104871876D01*
X144470524Y-104776638D01*
X144565762Y-104681400D01*
X144708620Y-104633781D01*
X144803858Y-104633781D01*
X144946715Y-104681400D01*
X144994334Y-104729019D01*
X145375286Y-104729019D02*
X145422905Y-104681400D01*
X145518143Y-104633781D01*
X145756239Y-104633781D01*
X145851477Y-104681400D01*
X145899096Y-104729019D01*
X145946715Y-104824257D01*
X145946715Y-104919495D01*
X145899096Y-105062352D01*
X145327667Y-105633781D01*
X145946715Y-105633781D01*
X144346705Y-116022381D02*
X144346705Y-115022381D01*
X144727658Y-115022381D01*
X144822896Y-115070000D01*
X144870515Y-115117619D01*
X144918134Y-115212857D01*
X144918134Y-115355714D01*
X144870515Y-115450952D01*
X144822896Y-115498571D01*
X144727658Y-115546190D01*
X144346705Y-115546190D01*
X145775277Y-115355714D02*
X145775277Y-116022381D01*
X145537181Y-114974762D02*
X145299086Y-115689048D01*
X145918134Y-115689048D01*
M02*
