M48
;DRILL file {KiCad no-vcs-found-product} date Sat 25 Jul 2015 04:51:05 PM PDT
;FORMAT={2:4/ absolute / inch / suppress leading zeros}
FMAT,2
INCH,TZ
T1C0.013
T2C0.040
%
G90
G05
M72
T1
X54260Y-42200
X54500Y-37800
X55500Y-37800
X55620Y-41370
X55760Y-42200
X56500Y-37800
X56600Y-43150
X56680Y-40550
X57150Y-40000
T2
X53000Y-37150
X53000Y-38150
X53000Y-39150
X53000Y-40150
X53000Y-41150
X53000Y-42150
X53000Y-43150
X53000Y-44150
X54500Y-35850
X54500Y-36850
X55050Y-45000
X55500Y-35850
X55500Y-36850
X56050Y-45000
X56500Y-35850
X56500Y-36850
X58000Y-37150
X58000Y-38150
X58000Y-39150
X58000Y-40150
X58000Y-41150
X58000Y-42150
X58000Y-43150
X58000Y-44150
T0
M30
