M48
;DRILL file {KiCad no-vcs-found-product} date Wed 15 Jul 2015 02:03:04 AM PDT
;FORMAT={2:4/ absolute / inch / keep zeros}
FMAT,2
INCH,TZ
T1C0.013
T2C0.040
%
G90
G05
M72
T1
X054300Y-042850
X054500Y-037800
X055100Y-042650
X055500Y-037800
X055550Y-042500
X055950Y-042350
X056350Y-042200
X056500Y-037800
X057150Y-040000
T2
X053000Y-037150
X053000Y-038150
X053000Y-039150
X053000Y-040150
X053000Y-041150
X053000Y-042150
X053000Y-043150
X053000Y-044150
X054500Y-035850
X054500Y-036850
X055500Y-035850
X055500Y-036850
X056500Y-035850
X056500Y-036850
X058000Y-037150
X058000Y-038150
X058000Y-039150
X058000Y-040150
X058000Y-041150
X058000Y-042150
X058000Y-043150
X058000Y-044150
T0
M30
