G04 #@! TF.FileFunction,Copper,L1,Top,Signal*
%FSLAX46Y46*%
G04 Gerber Fmt 4.6, Leading zero omitted, Abs format (unit mm)*
G04 Created by KiCad (PCBNEW no-vcs-found-product) date Sat 25 Jul 2015 04:50:57 PM PDT*
%MOMM*%
G01*
G04 APERTURE LIST*
%ADD10C,0.100000*%
%ADD11R,1.700000X0.900000*%
%ADD12R,1.727200X1.727200*%
%ADD13O,1.727200X1.727200*%
%ADD14R,2.032000X1.727200*%
%ADD15O,2.032000X1.727200*%
%ADD16R,0.800100X0.800100*%
%ADD17R,0.900000X0.500000*%
%ADD18R,0.889000X0.305000*%
%ADD19R,0.600000X0.500000*%
%ADD20R,0.500000X0.600000*%
%ADD21R,2.032000X2.032000*%
%ADD22O,2.032000X2.032000*%
%ADD23C,0.685800*%
%ADD24C,0.254000*%
%ADD25C,0.203200*%
%ADD26C,1.270000*%
G04 APERTURE END LIST*
D10*
D11*
X143764000Y-108278000D03*
X143764000Y-111178000D03*
D12*
X143510000Y-91059000D03*
D13*
X143510000Y-93599000D03*
X140970000Y-91059000D03*
X140970000Y-93599000D03*
X138430000Y-91059000D03*
X138430000Y-93599000D03*
D14*
X134620000Y-94361000D03*
D15*
X134620000Y-96901000D03*
X134620000Y-99441000D03*
X134620000Y-101981000D03*
X134620000Y-104521000D03*
X134620000Y-107061000D03*
X134620000Y-109601000D03*
X134620000Y-112141000D03*
D14*
X147320000Y-94361000D03*
D15*
X147320000Y-96901000D03*
X147320000Y-99441000D03*
X147320000Y-101981000D03*
X147320000Y-104521000D03*
X147320000Y-107061000D03*
X147320000Y-109601000D03*
X147320000Y-112141000D03*
D16*
X140688060Y-110157300D03*
X140688060Y-108257300D03*
X138689080Y-109207300D03*
D17*
X143510000Y-97294000D03*
X143510000Y-98794000D03*
X140970000Y-97294000D03*
X140970000Y-98794000D03*
X138430000Y-97294000D03*
X138430000Y-98794000D03*
D18*
X142497200Y-105076400D03*
X142497200Y-104576400D03*
X142497200Y-104076400D03*
X142497200Y-103576400D03*
X142497200Y-103076400D03*
X142497200Y-102576400D03*
X142497200Y-102076400D03*
X138157200Y-105076400D03*
X138157200Y-104576400D03*
X138157200Y-104076400D03*
X138157200Y-103576400D03*
X138157200Y-103076400D03*
X138157200Y-102576400D03*
X138157200Y-101576400D03*
X138157200Y-102076400D03*
X142497200Y-101576400D03*
D19*
X140237300Y-111620300D03*
X139137300Y-111620300D03*
D20*
X145161000Y-102726400D03*
X145161000Y-103826400D03*
D21*
X139827000Y-114300000D03*
D22*
X142367000Y-114300000D03*
D23*
X137820400Y-107188000D03*
X141630400Y-107188000D03*
X145161000Y-101600000D03*
X138430000Y-96012000D03*
X140970000Y-96012000D03*
X143510000Y-96012000D03*
X143764000Y-109601000D03*
X141274800Y-105079800D03*
X143967200Y-102997000D03*
D24*
X137795000Y-107188000D02*
X137795000Y-112395000D01*
X141605000Y-112395000D02*
X141605000Y-107188000D01*
X137795000Y-112395000D02*
X141605000Y-112395000D01*
D25*
X145161000Y-102726400D02*
X145161000Y-101600000D01*
X142497200Y-101576400D02*
X145137400Y-101576400D01*
X145137400Y-101576400D02*
X145161000Y-101600000D01*
X145161000Y-101600000D02*
X145137400Y-101576400D01*
X138430000Y-96012000D02*
X138430000Y-97294000D01*
X140970000Y-96012000D02*
X140970000Y-97294000D01*
X143510000Y-96012000D02*
X143510000Y-97294000D01*
X142497200Y-104076400D02*
X143446400Y-104076400D01*
X145643600Y-104927400D02*
X147320000Y-106603800D01*
X144297400Y-104927400D02*
X145643600Y-104927400D01*
X143446400Y-104076400D02*
X144297400Y-104927400D01*
X147320000Y-106603800D02*
X147320000Y-107061000D01*
X142497200Y-104576400D02*
X143336800Y-104576400D01*
X145872200Y-108153200D02*
X147320000Y-109601000D01*
X145872200Y-105791000D02*
X145872200Y-108153200D01*
X145389600Y-105308400D02*
X145872200Y-105791000D01*
X144068800Y-105308400D02*
X145389600Y-105308400D01*
X143336800Y-104576400D02*
X144068800Y-105308400D01*
X138157200Y-101576400D02*
X139320800Y-101576400D01*
X143764000Y-105994200D02*
X143764000Y-108278000D01*
X143510000Y-105740200D02*
X143764000Y-105994200D01*
X140843000Y-105740200D02*
X143510000Y-105740200D01*
X140487400Y-105384600D02*
X140843000Y-105740200D01*
X140487400Y-102743000D02*
X140487400Y-105384600D01*
X139320800Y-101576400D02*
X140487400Y-102743000D01*
X138157200Y-101576400D02*
X137238000Y-101576400D01*
X136702800Y-96443800D02*
X134620000Y-94361000D01*
X136702800Y-101041200D02*
X136702800Y-96443800D01*
X137238000Y-101576400D02*
X136702800Y-101041200D01*
D26*
X143764000Y-108278000D02*
X143764000Y-109601000D01*
D25*
X143764000Y-111178000D02*
X143764000Y-110972600D01*
X143764000Y-110972600D02*
X142621000Y-109829600D01*
X139262000Y-102076400D02*
X138157200Y-102076400D01*
X140055600Y-102870000D02*
X139262000Y-102076400D01*
X140055600Y-105511600D02*
X140055600Y-102870000D01*
X140665200Y-106121200D02*
X140055600Y-105511600D01*
X142367000Y-106121200D02*
X140665200Y-106121200D01*
X142621000Y-106375200D02*
X142367000Y-106121200D01*
X142621000Y-109829600D02*
X142621000Y-106375200D01*
X138157200Y-102076400D02*
X137153800Y-102076400D01*
X136067800Y-96901000D02*
X134620000Y-96901000D01*
X136321800Y-97155000D02*
X136067800Y-96901000D01*
X136321800Y-101244400D02*
X136321800Y-97155000D01*
X137153800Y-102076400D02*
X136321800Y-101244400D01*
D26*
X142367000Y-114300000D02*
X143002000Y-114300000D01*
X143002000Y-114300000D02*
X143764000Y-113538000D01*
X143764000Y-113538000D02*
X143764000Y-111178000D01*
D25*
X138157200Y-102576400D02*
X139152400Y-102576400D01*
X140688060Y-106702860D02*
X140688060Y-108257300D01*
X139623800Y-105638600D02*
X140688060Y-106702860D01*
X139623800Y-103047800D02*
X139623800Y-105638600D01*
X139152400Y-102576400D02*
X139623800Y-103047800D01*
X138157200Y-102576400D02*
X137095000Y-102576400D01*
X137095000Y-102576400D02*
X135940800Y-101422200D01*
X135940800Y-101422200D02*
X135940800Y-99695000D01*
X135940800Y-99695000D02*
X135686800Y-99441000D01*
X135686800Y-99441000D02*
X134620000Y-99441000D01*
X140300800Y-111556800D02*
X140300800Y-110544560D01*
X140300800Y-110544560D02*
X140751560Y-110093800D01*
X140751560Y-108193800D02*
X140751560Y-110093800D01*
X138157200Y-103076400D02*
X138915800Y-103076400D01*
X138689080Y-106649520D02*
X138689080Y-109207300D01*
X139192000Y-106146600D02*
X138689080Y-106649520D01*
X139192000Y-103352600D02*
X139192000Y-106146600D01*
X138915800Y-103076400D02*
X139192000Y-103352600D01*
X138157200Y-103076400D02*
X136985400Y-103076400D01*
X136985400Y-103076400D02*
X135890000Y-101981000D01*
X135890000Y-101981000D02*
X134620000Y-101981000D01*
X138671300Y-109189520D02*
X138689080Y-109207300D01*
X139200800Y-111556800D02*
X139200800Y-109592020D01*
X139200800Y-109592020D02*
X138752580Y-109143800D01*
X142497200Y-105076400D02*
X141278200Y-105076400D01*
X141278200Y-105076400D02*
X141274800Y-105079800D01*
X145161000Y-103826400D02*
X144441000Y-103826400D01*
X143967200Y-103352600D02*
X143967200Y-102997000D01*
X144441000Y-103826400D02*
X143967200Y-103352600D01*
X142502600Y-105071000D02*
X142497200Y-105076400D01*
X142502600Y-105071000D02*
X142497200Y-105076400D01*
X142497200Y-103576400D02*
X143581400Y-103576400D01*
X144526000Y-104521000D02*
X147320000Y-104521000D01*
X143581400Y-103576400D02*
X144526000Y-104521000D01*
X138157200Y-105076400D02*
X137163400Y-105076400D01*
X136448800Y-110312200D02*
X134620000Y-112141000D01*
X136448800Y-105791000D02*
X136448800Y-110312200D01*
X137163400Y-105076400D02*
X136448800Y-105791000D01*
X138157200Y-104576400D02*
X137104600Y-104576400D01*
X136067800Y-108153200D02*
X134620000Y-109601000D01*
X136067800Y-105613200D02*
X136067800Y-108153200D01*
X137104600Y-104576400D02*
X136067800Y-105613200D01*
X138157200Y-104076400D02*
X137071200Y-104076400D01*
X134620000Y-106070400D02*
X134620000Y-107061000D01*
X134874000Y-105816400D02*
X134620000Y-106070400D01*
X135331200Y-105816400D02*
X134874000Y-105816400D01*
X137071200Y-104076400D02*
X135331200Y-105816400D01*
X138157200Y-103576400D02*
X136987000Y-103576400D01*
X136042400Y-104521000D02*
X134620000Y-104521000D01*
X136987000Y-103576400D02*
X136042400Y-104521000D01*
X142497200Y-102076400D02*
X141890600Y-102076400D01*
X142811500Y-99250500D02*
X143268000Y-98794000D01*
X141922500Y-99250500D02*
X142811500Y-99250500D01*
X141795200Y-99377800D02*
X141922500Y-99250500D01*
X141795200Y-101981000D02*
X141795200Y-99377800D01*
X141890600Y-102076400D02*
X141795200Y-101981000D01*
X143268000Y-98794000D02*
X143510000Y-98794000D01*
X143510000Y-93599000D02*
X144272000Y-93599000D01*
X144272000Y-93599000D02*
X144780000Y-94107000D01*
X144780000Y-94107000D02*
X144780000Y-98425000D01*
X144780000Y-98425000D02*
X144411000Y-98794000D01*
X144411000Y-98794000D02*
X143510000Y-98794000D01*
X142497200Y-102576400D02*
X141887702Y-102576400D01*
X141427200Y-99251200D02*
X140970000Y-98794000D01*
X141427200Y-102115898D02*
X141427200Y-99251200D01*
X141887702Y-102576400D02*
X141427200Y-102115898D01*
X140970000Y-93599000D02*
X141605000Y-93599000D01*
X141605000Y-93599000D02*
X142240000Y-94234000D01*
X142240000Y-94234000D02*
X142240000Y-98425000D01*
X142240000Y-98425000D02*
X141871000Y-98794000D01*
X141871000Y-98794000D02*
X140970000Y-98794000D01*
X142497200Y-103076400D02*
X141862200Y-103076400D01*
X139319000Y-99339400D02*
X139319000Y-98806000D01*
X139547600Y-99568000D02*
X139319000Y-99339400D01*
X140919200Y-99568000D02*
X139547600Y-99568000D01*
X141071598Y-99720398D02*
X140919200Y-99568000D01*
X141071598Y-102285798D02*
X141071598Y-99720398D01*
X141862200Y-103076400D02*
X141071598Y-102285798D01*
X138430000Y-93599000D02*
X138938000Y-93599000D01*
X138938000Y-93599000D02*
X139700000Y-94361000D01*
X139319000Y-98806000D02*
X138442000Y-98806000D01*
X139700000Y-98425000D02*
X139319000Y-98806000D01*
X139700000Y-94361000D02*
X139700000Y-98425000D01*
X138442000Y-98806000D02*
X138430000Y-98794000D01*
X138442000Y-98806000D02*
X138430000Y-98794000D01*
M02*
