G04 #@! TF.FileFunction,Legend,Bot*
%FSLAX46Y46*%
G04 Gerber Fmt 4.6, Leading zero omitted, Abs format (unit mm)*
G04 Created by KiCad (PCBNEW no-vcs-found-product) date Sat 25 Jul 2015 04:50:57 PM PDT*
%MOMM*%
G01*
G04 APERTURE LIST*
%ADD10C,0.100000*%
%ADD11C,0.190500*%
%ADD12C,0.150000*%
G04 APERTURE END LIST*
D10*
D11*
X139816719Y-95637048D02*
X139816719Y-95213715D01*
X138800719Y-95340715D01*
X138800719Y-95933382D02*
X138800719Y-96441382D01*
X139816719Y-96060382D02*
X138800719Y-96187382D01*
X139719957Y-97130810D02*
X139768338Y-97082428D01*
X139816719Y-96949381D01*
X139816719Y-96864715D01*
X139768338Y-96743762D01*
X139671576Y-96671191D01*
X139574814Y-96640953D01*
X139381290Y-96622809D01*
X139236148Y-96640952D01*
X139042624Y-96707477D01*
X138945862Y-96761905D01*
X138849100Y-96858667D01*
X138800719Y-96991715D01*
X138800719Y-97076381D01*
X138849100Y-97197333D01*
X138897481Y-97233619D01*
X138897481Y-97572285D02*
X138849100Y-97620667D01*
X138800719Y-97711381D01*
X138800719Y-97923048D01*
X138849100Y-98001667D01*
X138897481Y-98037952D01*
X138994243Y-98068190D01*
X139091005Y-98056095D01*
X139236148Y-97995619D01*
X139816719Y-97415048D01*
X139816719Y-97965381D01*
X139816719Y-98388715D02*
X139816719Y-98558048D01*
X139768338Y-98648762D01*
X139719957Y-98697143D01*
X139574814Y-98799953D01*
X139381290Y-98866476D01*
X138994243Y-98914857D01*
X138897481Y-98884619D01*
X138849100Y-98848334D01*
X138800719Y-98769715D01*
X138800719Y-98600382D01*
X138849100Y-98509667D01*
X138897481Y-98461286D01*
X138994243Y-98406857D01*
X139236148Y-98376619D01*
X139332910Y-98406858D01*
X139381290Y-98443143D01*
X139429671Y-98521763D01*
X139429671Y-98691096D01*
X139381290Y-98781810D01*
X139332910Y-98830191D01*
X139236148Y-98884619D01*
X139816719Y-99235382D02*
X139816719Y-99404715D01*
X139768338Y-99495429D01*
X139719957Y-99543810D01*
X139574814Y-99646620D01*
X139381290Y-99713143D01*
X138994243Y-99761524D01*
X138897481Y-99731286D01*
X138849100Y-99695001D01*
X138800719Y-99616382D01*
X138800719Y-99447049D01*
X138849100Y-99356334D01*
X138897481Y-99307953D01*
X138994243Y-99253524D01*
X139236148Y-99223286D01*
X139332910Y-99253525D01*
X139381290Y-99289810D01*
X139429671Y-99368430D01*
X139429671Y-99537763D01*
X139381290Y-99628477D01*
X139332910Y-99676858D01*
X139236148Y-99731286D01*
X139816719Y-100505382D02*
X139816719Y-99997382D01*
X139816719Y-100251382D02*
X138800719Y-100378382D01*
X138945862Y-100275573D01*
X139042624Y-100178811D01*
X139091005Y-100088096D01*
X139816719Y-101563716D02*
X138800719Y-101690716D01*
X138800719Y-101902382D01*
X138849100Y-102023334D01*
X138945862Y-102095906D01*
X139042624Y-102126144D01*
X139236148Y-102144287D01*
X139381290Y-102126144D01*
X139574814Y-102059620D01*
X139671576Y-102005192D01*
X139768338Y-101908429D01*
X139816719Y-101775382D01*
X139816719Y-101563716D01*
X139768338Y-102797429D02*
X139816719Y-102706716D01*
X139816719Y-102537382D01*
X139768338Y-102458763D01*
X139671576Y-102428525D01*
X139284529Y-102476905D01*
X139187767Y-102531335D01*
X139139386Y-102622048D01*
X139139386Y-102791382D01*
X139187767Y-102870001D01*
X139284529Y-102900239D01*
X139381290Y-102888144D01*
X139478052Y-102452715D01*
X139139386Y-103214715D02*
X139816719Y-103341716D01*
X139139386Y-103638048D01*
X139284529Y-104932238D02*
X139332910Y-105053191D01*
X139381290Y-105089476D01*
X139478052Y-105119715D01*
X139623195Y-105101572D01*
X139719957Y-105047143D01*
X139768338Y-104998762D01*
X139816719Y-104908048D01*
X139816719Y-104569382D01*
X138800719Y-104696382D01*
X138800719Y-104992715D01*
X138849100Y-105071334D01*
X138897481Y-105107619D01*
X138994243Y-105137857D01*
X139091005Y-105125762D01*
X139187767Y-105071334D01*
X139236148Y-105022953D01*
X139284529Y-104932238D01*
X139284529Y-104635905D01*
X139816719Y-105585382D02*
X139768338Y-105506762D01*
X139719957Y-105470477D01*
X139623195Y-105440238D01*
X139332910Y-105476524D01*
X139236148Y-105530953D01*
X139187767Y-105579334D01*
X139139386Y-105670048D01*
X139139386Y-105797048D01*
X139187767Y-105875667D01*
X139236148Y-105911953D01*
X139332910Y-105942191D01*
X139623195Y-105905905D01*
X139719957Y-105851477D01*
X139768338Y-105803095D01*
X139816719Y-105712382D01*
X139816719Y-105585382D01*
X139816719Y-106643715D02*
X139284529Y-106710238D01*
X139187767Y-106680000D01*
X139139386Y-106601381D01*
X139139386Y-106432047D01*
X139187767Y-106341334D01*
X139768338Y-106649762D02*
X139816719Y-106559048D01*
X139816719Y-106347381D01*
X139768338Y-106268762D01*
X139671576Y-106238524D01*
X139574814Y-106250619D01*
X139478052Y-106305048D01*
X139429671Y-106395762D01*
X139429671Y-106607429D01*
X139381290Y-106698143D01*
X139816719Y-107067048D02*
X139139386Y-107151714D01*
X139332910Y-107127524D02*
X139236148Y-107181952D01*
X139187767Y-107230333D01*
X139139386Y-107321047D01*
X139139386Y-107405714D01*
X139816719Y-107998381D02*
X138800719Y-108125381D01*
X139768338Y-108004428D02*
X139816719Y-107913714D01*
X139816719Y-107744381D01*
X139768338Y-107665761D01*
X139719957Y-107629476D01*
X139623195Y-107599237D01*
X139332910Y-107635523D01*
X139236148Y-107689952D01*
X139187767Y-107738333D01*
X139139386Y-107829047D01*
X139139386Y-107998380D01*
X139187767Y-108077000D01*
X141429619Y-95721715D02*
X140945810Y-95485857D01*
X141429619Y-95213715D02*
X140413619Y-95340715D01*
X140413619Y-95679381D01*
X140462000Y-95758000D01*
X140510381Y-95794285D01*
X140607143Y-95824524D01*
X140752286Y-95806381D01*
X140849048Y-95751952D01*
X140897429Y-95703571D01*
X140945810Y-95612857D01*
X140945810Y-95274191D01*
X141381238Y-96447428D02*
X141429619Y-96356715D01*
X141429619Y-96187381D01*
X141381238Y-96108762D01*
X141284476Y-96078524D01*
X140897429Y-96126904D01*
X140800667Y-96181334D01*
X140752286Y-96272047D01*
X140752286Y-96441381D01*
X140800667Y-96520000D01*
X140897429Y-96550238D01*
X140994190Y-96538143D01*
X141090952Y-96102714D01*
X140752286Y-96864714D02*
X141429619Y-96991715D01*
X140752286Y-97288047D01*
X141332857Y-97554143D02*
X141381238Y-97590428D01*
X141429619Y-97542048D01*
X141381238Y-97505761D01*
X141332857Y-97554143D01*
X141429619Y-97542048D01*
X140897429Y-99005570D02*
X140945810Y-99126523D01*
X140994190Y-99162808D01*
X141090952Y-99193047D01*
X141236095Y-99174904D01*
X141332857Y-99120475D01*
X141381238Y-99072094D01*
X141429619Y-98981380D01*
X141429619Y-98642714D01*
X140413619Y-98769714D01*
X140413619Y-99066047D01*
X140462000Y-99144666D01*
X140510381Y-99180951D01*
X140607143Y-99211189D01*
X140703905Y-99199094D01*
X140800667Y-99144666D01*
X140849048Y-99096285D01*
X140897429Y-99005570D01*
X140897429Y-98709237D01*
X141381238Y-99580094D02*
X141429619Y-99574047D01*
X141526381Y-99519618D01*
X141574762Y-99471237D01*
X140413619Y-101013380D02*
X141139333Y-100922665D01*
X141284476Y-100862189D01*
X141381238Y-100765427D01*
X141429619Y-100632380D01*
X141429619Y-100547713D01*
X140752286Y-101775379D02*
X141429619Y-101690713D01*
X140752286Y-101394379D02*
X141284476Y-101327856D01*
X141381238Y-101358093D01*
X141429619Y-101436713D01*
X141429619Y-101563713D01*
X141381238Y-101654426D01*
X141332857Y-101702808D01*
X141429619Y-102241046D02*
X141381238Y-102162426D01*
X141284476Y-102132189D01*
X140413619Y-102241046D01*
X140752286Y-102579712D02*
X141429619Y-102706713D01*
X140752286Y-103003045D02*
X141429619Y-102706713D01*
X141671524Y-102591807D01*
X141719905Y-102543427D01*
X141768286Y-102452712D01*
X140510381Y-104006949D02*
X140462000Y-104055331D01*
X140413619Y-104146045D01*
X140413619Y-104357712D01*
X140462000Y-104436331D01*
X140510381Y-104472616D01*
X140607143Y-104502854D01*
X140703905Y-104490759D01*
X140849048Y-104430283D01*
X141429619Y-103849712D01*
X141429619Y-104400045D01*
X140413619Y-105077379D02*
X140413619Y-105162046D01*
X140462000Y-105240664D01*
X140510381Y-105276950D01*
X140607143Y-105307188D01*
X140800667Y-105325331D01*
X141042571Y-105295093D01*
X141236095Y-105228569D01*
X141332857Y-105174141D01*
X141381238Y-105125759D01*
X141429619Y-105035046D01*
X141429619Y-104950379D01*
X141381238Y-104871759D01*
X141332857Y-104835474D01*
X141236095Y-104805236D01*
X141042571Y-104787093D01*
X140800667Y-104817331D01*
X140607143Y-104883855D01*
X140510381Y-104938283D01*
X140462000Y-104986664D01*
X140413619Y-105077379D01*
X141429619Y-106093379D02*
X141429619Y-105585379D01*
X141429619Y-105839379D02*
X140413619Y-105966379D01*
X140558762Y-105863570D01*
X140655524Y-105766808D01*
X140703905Y-105676093D01*
X140413619Y-107024713D02*
X140413619Y-106601380D01*
X140897429Y-106498569D01*
X140849048Y-106546951D01*
X140800667Y-106637665D01*
X140800667Y-106849332D01*
X140849048Y-106927951D01*
X140897429Y-106964236D01*
X140994190Y-106994474D01*
X141236095Y-106964236D01*
X141332857Y-106909808D01*
X141381238Y-106861427D01*
X141429619Y-106770713D01*
X141429619Y-106559046D01*
X141381238Y-106480427D01*
X141332857Y-106444141D01*
X143042519Y-95213715D02*
X142026519Y-95340715D01*
X143042519Y-95594715D02*
X142510329Y-95661238D01*
X142413567Y-95631000D01*
X142365186Y-95552381D01*
X142365186Y-95425381D01*
X142413567Y-95334667D01*
X142461948Y-95286286D01*
X142365186Y-95975714D02*
X142365186Y-96314380D01*
X142026519Y-96145048D02*
X142897376Y-96036191D01*
X142994138Y-96066428D01*
X143042519Y-96145048D01*
X143042519Y-96229714D01*
X142365186Y-96483714D02*
X142365186Y-96822380D01*
X142026519Y-96653048D02*
X142897376Y-96544191D01*
X142994138Y-96574428D01*
X143042519Y-96653048D01*
X143042519Y-96737714D01*
X142365186Y-97118714D02*
X143381186Y-96991714D01*
X142413567Y-97112667D02*
X142365186Y-97203380D01*
X142365186Y-97372714D01*
X142413567Y-97451333D01*
X142461948Y-97487619D01*
X142558710Y-97517857D01*
X142848995Y-97481571D01*
X142945757Y-97427143D01*
X142994138Y-97378761D01*
X143042519Y-97288048D01*
X143042519Y-97118714D01*
X142994138Y-97040095D01*
X142945757Y-97850476D02*
X142994138Y-97886761D01*
X143042519Y-97838381D01*
X142994138Y-97802094D01*
X142945757Y-97850476D01*
X143042519Y-97838381D01*
X142413567Y-97917000D02*
X142461948Y-97953285D01*
X142510329Y-97904904D01*
X142461948Y-97868618D01*
X142413567Y-97917000D01*
X142510329Y-97904904D01*
X141978138Y-99029761D02*
X143284424Y-98104475D01*
X141978138Y-99961094D02*
X143284424Y-99035808D01*
X142365186Y-100124379D02*
X143042519Y-100209046D01*
X142558710Y-100438856D01*
X143042519Y-100547713D01*
X142365186Y-100801712D01*
X142365186Y-101055712D02*
X143042519Y-101140379D01*
X142558710Y-101370189D01*
X143042519Y-101479046D01*
X142365186Y-101733045D01*
X142365186Y-101987045D02*
X143042519Y-102071712D01*
X142558710Y-102301522D01*
X143042519Y-102410379D01*
X142365186Y-102664378D01*
X142945757Y-102930474D02*
X142994138Y-102966759D01*
X143042519Y-102918379D01*
X142994138Y-102882092D01*
X142945757Y-102930474D01*
X143042519Y-102918379D01*
X142365186Y-103426378D02*
X143042519Y-103341712D01*
X142461948Y-103414283D02*
X142413567Y-103462664D01*
X142365186Y-103553378D01*
X142365186Y-103680378D01*
X142413567Y-103758997D01*
X142510329Y-103789235D01*
X143042519Y-103722712D01*
X142994138Y-104490758D02*
X143042519Y-104400045D01*
X143042519Y-104230711D01*
X142994138Y-104152092D01*
X142897376Y-104121854D01*
X142510329Y-104170234D01*
X142413567Y-104224664D01*
X142365186Y-104315377D01*
X142365186Y-104484711D01*
X142413567Y-104563330D01*
X142510329Y-104593568D01*
X142607090Y-104581473D01*
X142703852Y-104146044D01*
X143042519Y-105035045D02*
X142994138Y-104956425D01*
X142897376Y-104926188D01*
X142026519Y-105035045D01*
X143042519Y-105500712D02*
X142994138Y-105422092D01*
X142897376Y-105391855D01*
X142026519Y-105500712D01*
X142365186Y-106305045D02*
X143042519Y-106220379D01*
X142365186Y-105924045D02*
X142897376Y-105857522D01*
X142994138Y-105887759D01*
X143042519Y-105966379D01*
X143042519Y-106093379D01*
X142994138Y-106184092D01*
X142945757Y-106232474D01*
X143042519Y-106643712D02*
X142365186Y-106728378D01*
X142461948Y-106716283D02*
X142413567Y-106764664D01*
X142365186Y-106855378D01*
X142365186Y-106982378D01*
X142413567Y-107060997D01*
X142510329Y-107091235D01*
X143042519Y-107024712D01*
X142510329Y-107091235D02*
X142413567Y-107145664D01*
X142365186Y-107236378D01*
X142365186Y-107363378D01*
X142413567Y-107441997D01*
X142510329Y-107472235D01*
X143042519Y-107405712D01*
X142365186Y-107913711D02*
X143381186Y-107786711D01*
X142413567Y-107907664D02*
X142365186Y-107998377D01*
X142365186Y-108167711D01*
X142413567Y-108246330D01*
X142461948Y-108282616D01*
X142558710Y-108312854D01*
X142848995Y-108276568D01*
X142945757Y-108222140D01*
X142994138Y-108173758D01*
X143042519Y-108083045D01*
X143042519Y-107913711D01*
X142994138Y-107835092D01*
X142945757Y-108645473D02*
X142994138Y-108681758D01*
X143042519Y-108633378D01*
X142994138Y-108597091D01*
X142945757Y-108645473D01*
X143042519Y-108633378D01*
X142365186Y-109141377D02*
X143042519Y-109056711D01*
X142461948Y-109129282D02*
X142413567Y-109177663D01*
X142365186Y-109268377D01*
X142365186Y-109395377D01*
X142413567Y-109473996D01*
X142510329Y-109504234D01*
X143042519Y-109437711D01*
X142994138Y-110205757D02*
X143042519Y-110115044D01*
X143042519Y-109945710D01*
X142994138Y-109867091D01*
X142897376Y-109836853D01*
X142510329Y-109885233D01*
X142413567Y-109939663D01*
X142365186Y-110030376D01*
X142365186Y-110199710D01*
X142413567Y-110278329D01*
X142510329Y-110308567D01*
X142607090Y-110296472D01*
X142703852Y-109861043D01*
X142365186Y-110580710D02*
X142365186Y-110919376D01*
X142026519Y-110750044D02*
X142897376Y-110641187D01*
X142994138Y-110671424D01*
X143042519Y-110750044D01*
X143042519Y-110834710D01*
X141978138Y-111899091D02*
X143284424Y-110973805D01*
X143042519Y-112189377D02*
X142994138Y-112110757D01*
X142897376Y-112080520D01*
X142026519Y-112189377D01*
X142365186Y-112485710D02*
X142365186Y-112824376D01*
X142026519Y-112655044D02*
X142897376Y-112546187D01*
X142994138Y-112576424D01*
X143042519Y-112655044D01*
X143042519Y-112739710D01*
X142994138Y-113423091D02*
X143042519Y-113332377D01*
X143042519Y-113163044D01*
X142994138Y-113084424D01*
X142945757Y-113048139D01*
X142848995Y-113017900D01*
X142558710Y-113054186D01*
X142461948Y-113108615D01*
X142413567Y-113156996D01*
X142365186Y-113247710D01*
X142365186Y-113417043D01*
X142413567Y-113495663D01*
X143042519Y-114179044D02*
X142026519Y-114306044D01*
X142994138Y-114185091D02*
X143042519Y-114094377D01*
X143042519Y-113925044D01*
X142994138Y-113846424D01*
X142945757Y-113810139D01*
X142848995Y-113779900D01*
X142558710Y-113816186D01*
X142461948Y-113870615D01*
X142413567Y-113918996D01*
X142365186Y-114009710D01*
X142365186Y-114179043D01*
X142413567Y-114257663D01*
X142994138Y-114947090D02*
X143042519Y-114856377D01*
X143042519Y-114687043D01*
X142994138Y-114608424D01*
X142897376Y-114578186D01*
X142510329Y-114626566D01*
X142413567Y-114680996D01*
X142365186Y-114771709D01*
X142365186Y-114941043D01*
X142413567Y-115019662D01*
X142510329Y-115049900D01*
X142607090Y-115037805D01*
X142703852Y-114602376D01*
X142365186Y-115364376D02*
X143042519Y-115491377D01*
X142365186Y-115787709D01*
D12*
X133350000Y-95631000D02*
X133350000Y-113411000D01*
X133350000Y-113411000D02*
X135890000Y-113411000D01*
X135890000Y-113411000D02*
X135890000Y-95631000D01*
X133070000Y-92811000D02*
X133070000Y-94361000D01*
X133350000Y-95631000D02*
X135890000Y-95631000D01*
X136170000Y-94361000D02*
X136170000Y-92811000D01*
X136170000Y-92811000D02*
X133070000Y-92811000D01*
X146050000Y-95631000D02*
X146050000Y-113411000D01*
X146050000Y-113411000D02*
X148590000Y-113411000D01*
X148590000Y-113411000D02*
X148590000Y-95631000D01*
X145770000Y-92811000D02*
X145770000Y-94361000D01*
X146050000Y-95631000D02*
X148590000Y-95631000D01*
X148870000Y-94361000D02*
X148870000Y-92811000D01*
X148870000Y-92811000D02*
X145770000Y-92811000D01*
X135358095Y-92400381D02*
X135358095Y-91400381D01*
X134977142Y-91400381D01*
X134881904Y-91448000D01*
X134834285Y-91495619D01*
X134786666Y-91590857D01*
X134786666Y-91733714D01*
X134834285Y-91828952D01*
X134881904Y-91876571D01*
X134977142Y-91924190D01*
X135358095Y-91924190D01*
X133834285Y-92400381D02*
X134405714Y-92400381D01*
X134120000Y-92400381D02*
X134120000Y-91400381D01*
X134215238Y-91543238D01*
X134310476Y-91638476D01*
X134405714Y-91686095D01*
X148058095Y-92400381D02*
X148058095Y-91400381D01*
X147677142Y-91400381D01*
X147581904Y-91448000D01*
X147534285Y-91495619D01*
X147486666Y-91590857D01*
X147486666Y-91733714D01*
X147534285Y-91828952D01*
X147581904Y-91876571D01*
X147677142Y-91924190D01*
X148058095Y-91924190D01*
X147105714Y-91495619D02*
X147058095Y-91448000D01*
X146962857Y-91400381D01*
X146724761Y-91400381D01*
X146629523Y-91448000D01*
X146581904Y-91495619D01*
X146534285Y-91590857D01*
X146534285Y-91686095D01*
X146581904Y-91828952D01*
X147153333Y-92400381D01*
X146534285Y-92400381D01*
M02*
