G04 #@! TF.FileFunction,Soldermask,Top*
%FSLAX46Y46*%
G04 Gerber Fmt 4.6, Leading zero omitted, Abs format (unit mm)*
G04 Created by KiCad (PCBNEW no-vcs-found-product) date Wed 15 Jul 2015 02:34:46 AM PDT*
%MOMM*%
G01*
G04 APERTURE LIST*
%ADD10C,0.100000*%
%ADD11R,1.700000X0.900000*%
%ADD12R,1.727200X1.727200*%
%ADD13O,1.727200X1.727200*%
%ADD14R,2.032000X1.727200*%
%ADD15O,2.032000X1.727200*%
%ADD16R,0.800100X0.800100*%
%ADD17R,0.900000X0.500000*%
%ADD18R,0.889000X0.305000*%
G04 APERTURE END LIST*
D10*
D11*
X143002000Y-113210000D03*
X143002000Y-110310000D03*
D12*
X143510000Y-91059000D03*
D13*
X143510000Y-93599000D03*
X140970000Y-91059000D03*
X140970000Y-93599000D03*
X138430000Y-91059000D03*
X138430000Y-93599000D03*
D14*
X134620000Y-94361000D03*
D15*
X134620000Y-96901000D03*
X134620000Y-99441000D03*
X134620000Y-101981000D03*
X134620000Y-104521000D03*
X134620000Y-107061000D03*
X134620000Y-109601000D03*
X134620000Y-112141000D03*
D14*
X147320000Y-94361000D03*
D15*
X147320000Y-96901000D03*
X147320000Y-99441000D03*
X147320000Y-101981000D03*
X147320000Y-104521000D03*
X147320000Y-107061000D03*
X147320000Y-109601000D03*
X147320000Y-112141000D03*
D16*
X139938760Y-113218000D03*
X139938760Y-111318000D03*
X137939780Y-112268000D03*
D17*
X143510000Y-97294000D03*
X143510000Y-98794000D03*
X140970000Y-97294000D03*
X140970000Y-98794000D03*
X138430000Y-97294000D03*
X138430000Y-98794000D03*
D18*
X143132200Y-105076400D03*
X143132200Y-104576400D03*
X143132200Y-104076400D03*
X143132200Y-103576400D03*
X143132200Y-103076400D03*
X143132200Y-102576400D03*
X143132200Y-102076400D03*
X138792200Y-105076400D03*
X138792200Y-104576400D03*
X138792200Y-104076400D03*
X138792200Y-103576400D03*
X138792200Y-103076400D03*
X138792200Y-102576400D03*
X138792200Y-101576400D03*
X138792200Y-102076400D03*
X143132200Y-101576400D03*
M02*
