G04 #@! TF.FileFunction,Legend,Top*
%FSLAX46Y46*%
G04 Gerber Fmt 4.6, Leading zero omitted, Abs format (unit mm)*
G04 Created by KiCad (PCBNEW no-vcs-found-product) date Wed 15 Jul 2015 02:34:46 AM PDT*
%MOMM*%
G01*
G04 APERTURE LIST*
%ADD10C,0.100000*%
%ADD11C,0.152400*%
%ADD12C,0.150000*%
G04 APERTURE END LIST*
D10*
D11*
X133114143Y-115602657D02*
X132678714Y-115602657D01*
X132678714Y-114688257D01*
X133288315Y-114688257D02*
X133810829Y-114688257D01*
X133549572Y-115602657D02*
X133549572Y-114688257D01*
X134638144Y-115515571D02*
X134594601Y-115559114D01*
X134463972Y-115602657D01*
X134376886Y-115602657D01*
X134246258Y-115559114D01*
X134159172Y-115472029D01*
X134115629Y-115384943D01*
X134072086Y-115210771D01*
X134072086Y-115080143D01*
X134115629Y-114905971D01*
X134159172Y-114818886D01*
X134246258Y-114731800D01*
X134376886Y-114688257D01*
X134463972Y-114688257D01*
X134594601Y-114731800D01*
X134638144Y-114775343D01*
X134986486Y-114775343D02*
X135030029Y-114731800D01*
X135117115Y-114688257D01*
X135334829Y-114688257D01*
X135421915Y-114731800D01*
X135465458Y-114775343D01*
X135509001Y-114862429D01*
X135509001Y-114949514D01*
X135465458Y-115080143D01*
X134942944Y-115602657D01*
X135509001Y-115602657D01*
X135944429Y-115602657D02*
X136118601Y-115602657D01*
X136205686Y-115559114D01*
X136249229Y-115515571D01*
X136336315Y-115384943D01*
X136379858Y-115210771D01*
X136379858Y-114862429D01*
X136336315Y-114775343D01*
X136292772Y-114731800D01*
X136205686Y-114688257D01*
X136031515Y-114688257D01*
X135944429Y-114731800D01*
X135900886Y-114775343D01*
X135857343Y-114862429D01*
X135857343Y-115080143D01*
X135900886Y-115167229D01*
X135944429Y-115210771D01*
X136031515Y-115254314D01*
X136205686Y-115254314D01*
X136292772Y-115210771D01*
X136336315Y-115167229D01*
X136379858Y-115080143D01*
X136815286Y-115602657D02*
X136989458Y-115602657D01*
X137076543Y-115559114D01*
X137120086Y-115515571D01*
X137207172Y-115384943D01*
X137250715Y-115210771D01*
X137250715Y-114862429D01*
X137207172Y-114775343D01*
X137163629Y-114731800D01*
X137076543Y-114688257D01*
X136902372Y-114688257D01*
X136815286Y-114731800D01*
X136771743Y-114775343D01*
X136728200Y-114862429D01*
X136728200Y-115080143D01*
X136771743Y-115167229D01*
X136815286Y-115210771D01*
X136902372Y-115254314D01*
X137076543Y-115254314D01*
X137163629Y-115210771D01*
X137207172Y-115167229D01*
X137250715Y-115080143D01*
X138121572Y-115602657D02*
X137599057Y-115602657D01*
X137860315Y-115602657D02*
X137860315Y-114688257D01*
X137773229Y-114818886D01*
X137686143Y-114905971D01*
X137599057Y-114949514D01*
X139210143Y-115602657D02*
X139210143Y-114688257D01*
X139427858Y-114688257D01*
X139558486Y-114731800D01*
X139645572Y-114818886D01*
X139689115Y-114905971D01*
X139732658Y-115080143D01*
X139732658Y-115210771D01*
X139689115Y-115384943D01*
X139645572Y-115472029D01*
X139558486Y-115559114D01*
X139427858Y-115602657D01*
X139210143Y-115602657D01*
X140472886Y-115559114D02*
X140385800Y-115602657D01*
X140211629Y-115602657D01*
X140124543Y-115559114D01*
X140081000Y-115472029D01*
X140081000Y-115123686D01*
X140124543Y-115036600D01*
X140211629Y-114993057D01*
X140385800Y-114993057D01*
X140472886Y-115036600D01*
X140516429Y-115123686D01*
X140516429Y-115210771D01*
X140081000Y-115297857D01*
X140821229Y-114993057D02*
X141038943Y-115602657D01*
X141256657Y-114993057D01*
X142606486Y-115123686D02*
X142737115Y-115167229D01*
X142780658Y-115210771D01*
X142824201Y-115297857D01*
X142824201Y-115428486D01*
X142780658Y-115515571D01*
X142737115Y-115559114D01*
X142650029Y-115602657D01*
X142301686Y-115602657D01*
X142301686Y-114688257D01*
X142606486Y-114688257D01*
X142693572Y-114731800D01*
X142737115Y-114775343D01*
X142780658Y-114862429D01*
X142780658Y-114949514D01*
X142737115Y-115036600D01*
X142693572Y-115080143D01*
X142606486Y-115123686D01*
X142301686Y-115123686D01*
X143346715Y-115602657D02*
X143259629Y-115559114D01*
X143216086Y-115515571D01*
X143172543Y-115428486D01*
X143172543Y-115167229D01*
X143216086Y-115080143D01*
X143259629Y-115036600D01*
X143346715Y-114993057D01*
X143477343Y-114993057D01*
X143564429Y-115036600D01*
X143607972Y-115080143D01*
X143651515Y-115167229D01*
X143651515Y-115428486D01*
X143607972Y-115515571D01*
X143564429Y-115559114D01*
X143477343Y-115602657D01*
X143346715Y-115602657D01*
X144435286Y-115602657D02*
X144435286Y-115123686D01*
X144391743Y-115036600D01*
X144304657Y-114993057D01*
X144130486Y-114993057D01*
X144043400Y-115036600D01*
X144435286Y-115559114D02*
X144348200Y-115602657D01*
X144130486Y-115602657D01*
X144043400Y-115559114D01*
X143999857Y-115472029D01*
X143999857Y-115384943D01*
X144043400Y-115297857D01*
X144130486Y-115254314D01*
X144348200Y-115254314D01*
X144435286Y-115210771D01*
X144870714Y-115602657D02*
X144870714Y-114993057D01*
X144870714Y-115167229D02*
X144914257Y-115080143D01*
X144957800Y-115036600D01*
X145044886Y-114993057D01*
X145131971Y-114993057D01*
X145828657Y-115602657D02*
X145828657Y-114688257D01*
X145828657Y-115559114D02*
X145741571Y-115602657D01*
X145567400Y-115602657D01*
X145480314Y-115559114D01*
X145436771Y-115515571D01*
X145393228Y-115428486D01*
X145393228Y-115167229D01*
X145436771Y-115080143D01*
X145480314Y-115036600D01*
X145567400Y-114993057D01*
X145741571Y-114993057D01*
X145828657Y-115036600D01*
X142856479Y-88921167D02*
X143279813Y-88921167D01*
X142740063Y-89175167D02*
X143147521Y-88286167D01*
X143332729Y-89175167D01*
X143687270Y-88370833D02*
X143734896Y-88328500D01*
X143824854Y-88286167D01*
X144036521Y-88286167D01*
X144115896Y-88328500D01*
X144152937Y-88370833D01*
X144184687Y-88455500D01*
X144174104Y-88540167D01*
X144115896Y-88667167D01*
X143544396Y-89175167D01*
X144094729Y-89175167D01*
X140316479Y-88921167D02*
X140739813Y-88921167D01*
X140200063Y-89175167D02*
X140607521Y-88286167D01*
X140792729Y-89175167D01*
X141554729Y-89175167D02*
X141046729Y-89175167D01*
X141300729Y-89175167D02*
X141411854Y-88286167D01*
X141311313Y-88413167D01*
X141216062Y-88497833D01*
X141126104Y-88540167D01*
X137776479Y-88921167D02*
X138199813Y-88921167D01*
X137660063Y-89175167D02*
X138067521Y-88286167D01*
X138252729Y-89175167D01*
X138829521Y-88286167D02*
X138914188Y-88286167D01*
X138993562Y-88328500D01*
X139030604Y-88370833D01*
X139062354Y-88455500D01*
X139083520Y-88624833D01*
X139057062Y-88836500D01*
X138993562Y-89005833D01*
X138940646Y-89090500D01*
X138893020Y-89132833D01*
X138803063Y-89175167D01*
X138718396Y-89175167D01*
X138639020Y-89132833D01*
X138601979Y-89090500D01*
X138570229Y-89005833D01*
X138549062Y-88836500D01*
X138575520Y-88624833D01*
X138639021Y-88455500D01*
X138691937Y-88370833D01*
X138739562Y-88328500D01*
X138829521Y-88286167D01*
D12*
X144077000Y-110760000D02*
X144077000Y-112760000D01*
X141927000Y-112760000D02*
X141927000Y-110760000D01*
X142240000Y-89789000D02*
X137160000Y-89789000D01*
X145060000Y-89509000D02*
X145060000Y-91059000D01*
X144780000Y-92329000D02*
X142240000Y-92329000D01*
X142240000Y-92329000D02*
X142240000Y-89789000D01*
X137160000Y-89789000D02*
X137160000Y-94869000D01*
X137160000Y-94869000D02*
X142240000Y-94869000D01*
X145060000Y-89509000D02*
X143510000Y-89509000D01*
X144780000Y-94869000D02*
X144780000Y-92329000D01*
X142240000Y-94869000D02*
X144780000Y-94869000D01*
X135890000Y-95631000D02*
X135890000Y-113411000D01*
X135890000Y-113411000D02*
X133350000Y-113411000D01*
X133350000Y-113411000D02*
X133350000Y-95631000D01*
X136170000Y-92811000D02*
X136170000Y-94361000D01*
X135890000Y-95631000D02*
X133350000Y-95631000D01*
X133070000Y-94361000D02*
X133070000Y-92811000D01*
X133070000Y-92811000D02*
X136170000Y-92811000D01*
X148590000Y-95631000D02*
X148590000Y-113411000D01*
X148590000Y-113411000D02*
X146050000Y-113411000D01*
X146050000Y-113411000D02*
X146050000Y-95631000D01*
X148870000Y-92811000D02*
X148870000Y-94361000D01*
X148590000Y-95631000D02*
X146050000Y-95631000D01*
X145770000Y-94361000D02*
X145770000Y-92811000D01*
X145770000Y-92811000D02*
X148870000Y-92811000D01*
X138287760Y-110968840D02*
X138287760Y-111017100D01*
X138988800Y-113767820D02*
X138287760Y-113767820D01*
X138287760Y-113767820D02*
X138287760Y-113518900D01*
X138287760Y-110968840D02*
X138287760Y-110768180D01*
X138287760Y-110768180D02*
X138988800Y-110768180D01*
X142835000Y-98544000D02*
X142835000Y-97544000D01*
X144185000Y-97544000D02*
X144185000Y-98544000D01*
X140295000Y-98544000D02*
X140295000Y-97544000D01*
X141645000Y-97544000D02*
X141645000Y-98544000D01*
X137755000Y-98544000D02*
X137755000Y-97544000D01*
X139105000Y-97544000D02*
X139105000Y-98544000D01*
X140092200Y-101676400D02*
G75*
G03X140092200Y-101676400I-200000J0D01*
G01*
X139452200Y-101256400D02*
X142472200Y-101256400D01*
X142472200Y-101256400D02*
X142472200Y-105286400D01*
X142472200Y-105286400D02*
X139452200Y-105286400D01*
X139452200Y-105286400D02*
X139452200Y-101256400D01*
X143978334Y-109291381D02*
X143645000Y-108815190D01*
X143406905Y-109291381D02*
X143406905Y-108291381D01*
X143787858Y-108291381D01*
X143883096Y-108339000D01*
X143930715Y-108386619D01*
X143978334Y-108481857D01*
X143978334Y-108624714D01*
X143930715Y-108719952D01*
X143883096Y-108767571D01*
X143787858Y-108815190D01*
X143406905Y-108815190D01*
X144930715Y-109291381D02*
X144359286Y-109291381D01*
X144645000Y-109291381D02*
X144645000Y-108291381D01*
X144549762Y-108434238D01*
X144454524Y-108529476D01*
X144359286Y-108577095D01*
X136469381Y-90908095D02*
X135469381Y-90908095D01*
X135469381Y-90527142D01*
X135517000Y-90431904D01*
X135564619Y-90384285D01*
X135659857Y-90336666D01*
X135802714Y-90336666D01*
X135897952Y-90384285D01*
X135945571Y-90431904D01*
X135993190Y-90527142D01*
X135993190Y-90908095D01*
X135469381Y-90003333D02*
X135469381Y-89384285D01*
X135850333Y-89717619D01*
X135850333Y-89574761D01*
X135897952Y-89479523D01*
X135945571Y-89431904D01*
X136040810Y-89384285D01*
X136278905Y-89384285D01*
X136374143Y-89431904D01*
X136421762Y-89479523D01*
X136469381Y-89574761D01*
X136469381Y-89860476D01*
X136421762Y-89955714D01*
X136374143Y-90003333D01*
X133881905Y-92400381D02*
X133881905Y-91400381D01*
X134262858Y-91400381D01*
X134358096Y-91448000D01*
X134405715Y-91495619D01*
X134453334Y-91590857D01*
X134453334Y-91733714D01*
X134405715Y-91828952D01*
X134358096Y-91876571D01*
X134262858Y-91924190D01*
X133881905Y-91924190D01*
X135405715Y-92400381D02*
X134834286Y-92400381D01*
X135120000Y-92400381D02*
X135120000Y-91400381D01*
X135024762Y-91543238D01*
X134929524Y-91638476D01*
X134834286Y-91686095D01*
X146581905Y-92400381D02*
X146581905Y-91400381D01*
X146962858Y-91400381D01*
X147058096Y-91448000D01*
X147105715Y-91495619D01*
X147153334Y-91590857D01*
X147153334Y-91733714D01*
X147105715Y-91828952D01*
X147058096Y-91876571D01*
X146962858Y-91924190D01*
X146581905Y-91924190D01*
X147534286Y-91495619D02*
X147581905Y-91448000D01*
X147677143Y-91400381D01*
X147915239Y-91400381D01*
X148010477Y-91448000D01*
X148058096Y-91495619D01*
X148105715Y-91590857D01*
X148105715Y-91686095D01*
X148058096Y-91828952D01*
X147486667Y-92400381D01*
X148105715Y-92400381D01*
X138842762Y-110402619D02*
X138747524Y-110355000D01*
X138652286Y-110259762D01*
X138509429Y-110116905D01*
X138414190Y-110069286D01*
X138318952Y-110069286D01*
X138366571Y-110307381D02*
X138271333Y-110259762D01*
X138176095Y-110164524D01*
X138128476Y-109974048D01*
X138128476Y-109640714D01*
X138176095Y-109450238D01*
X138271333Y-109355000D01*
X138366571Y-109307381D01*
X138557048Y-109307381D01*
X138652286Y-109355000D01*
X138747524Y-109450238D01*
X138795143Y-109640714D01*
X138795143Y-109974048D01*
X138747524Y-110164524D01*
X138652286Y-110259762D01*
X138557048Y-110307381D01*
X138366571Y-110307381D01*
X139747524Y-110307381D02*
X139176095Y-110307381D01*
X139461809Y-110307381D02*
X139461809Y-109307381D01*
X139366571Y-109450238D01*
X139271333Y-109545476D01*
X139176095Y-109593095D01*
X143851334Y-100528381D02*
X143518000Y-100052190D01*
X143279905Y-100528381D02*
X143279905Y-99528381D01*
X143660858Y-99528381D01*
X143756096Y-99576000D01*
X143803715Y-99623619D01*
X143851334Y-99718857D01*
X143851334Y-99861714D01*
X143803715Y-99956952D01*
X143756096Y-100004571D01*
X143660858Y-100052190D01*
X143279905Y-100052190D01*
X144232286Y-99623619D02*
X144279905Y-99576000D01*
X144375143Y-99528381D01*
X144613239Y-99528381D01*
X144708477Y-99576000D01*
X144756096Y-99623619D01*
X144803715Y-99718857D01*
X144803715Y-99814095D01*
X144756096Y-99956952D01*
X144184667Y-100528381D01*
X144803715Y-100528381D01*
X141311334Y-100528381D02*
X140978000Y-100052190D01*
X140739905Y-100528381D02*
X140739905Y-99528381D01*
X141120858Y-99528381D01*
X141216096Y-99576000D01*
X141263715Y-99623619D01*
X141311334Y-99718857D01*
X141311334Y-99861714D01*
X141263715Y-99956952D01*
X141216096Y-100004571D01*
X141120858Y-100052190D01*
X140739905Y-100052190D01*
X141644667Y-99528381D02*
X142263715Y-99528381D01*
X141930381Y-99909333D01*
X142073239Y-99909333D01*
X142168477Y-99956952D01*
X142216096Y-100004571D01*
X142263715Y-100099810D01*
X142263715Y-100337905D01*
X142216096Y-100433143D01*
X142168477Y-100480762D01*
X142073239Y-100528381D01*
X141787524Y-100528381D01*
X141692286Y-100480762D01*
X141644667Y-100433143D01*
X138771334Y-100528381D02*
X138438000Y-100052190D01*
X138199905Y-100528381D02*
X138199905Y-99528381D01*
X138580858Y-99528381D01*
X138676096Y-99576000D01*
X138723715Y-99623619D01*
X138771334Y-99718857D01*
X138771334Y-99861714D01*
X138723715Y-99956952D01*
X138676096Y-100004571D01*
X138580858Y-100052190D01*
X138199905Y-100052190D01*
X139628477Y-99861714D02*
X139628477Y-100528381D01*
X139390381Y-99480762D02*
X139152286Y-100195048D01*
X139771334Y-100195048D01*
X140258895Y-105649781D02*
X140258895Y-106459305D01*
X140306514Y-106554543D01*
X140354133Y-106602162D01*
X140449371Y-106649781D01*
X140639848Y-106649781D01*
X140735086Y-106602162D01*
X140782705Y-106554543D01*
X140830324Y-106459305D01*
X140830324Y-105649781D01*
X141830324Y-106649781D02*
X141258895Y-106649781D01*
X141544609Y-106649781D02*
X141544609Y-105649781D01*
X141449371Y-105792638D01*
X141354133Y-105887876D01*
X141258895Y-105935495D01*
M02*
