G04 #@! TF.FileFunction,Copper,L2,Bot,Signal*
%FSLAX46Y46*%
G04 Gerber Fmt 4.6, Leading zero omitted, Abs format (unit mm)*
G04 Created by KiCad (PCBNEW no-vcs-found-product) date Sat 25 Jul 2015 09:49:24 PM PDT*
%MOMM*%
G01*
G04 APERTURE LIST*
%ADD10C,0.100000*%
%ADD11R,1.727200X1.727200*%
%ADD12O,1.727200X1.727200*%
%ADD13R,2.032000X1.727200*%
%ADD14O,2.032000X1.727200*%
%ADD15R,2.032000X2.032000*%
%ADD16O,2.032000X2.032000*%
%ADD17C,0.685800*%
%ADD18C,0.203200*%
%ADD19C,1.270000*%
%ADD20C,0.254000*%
G04 APERTURE END LIST*
D10*
D11*
X143510000Y-91059000D03*
D12*
X143510000Y-93599000D03*
X140970000Y-91059000D03*
X140970000Y-93599000D03*
X138430000Y-91059000D03*
X138430000Y-93599000D03*
D13*
X134620000Y-94361000D03*
D14*
X134620000Y-96901000D03*
X134620000Y-99441000D03*
X134620000Y-101981000D03*
X134620000Y-104521000D03*
X134620000Y-107061000D03*
X134620000Y-109601000D03*
X134620000Y-112141000D03*
D13*
X147320000Y-94361000D03*
D14*
X147320000Y-96901000D03*
X147320000Y-99441000D03*
X147320000Y-101981000D03*
X147320000Y-104521000D03*
X147320000Y-107061000D03*
X147320000Y-109601000D03*
X147320000Y-112141000D03*
D15*
X139827000Y-114300000D03*
D16*
X142367000Y-114300000D03*
D17*
X145161000Y-101600000D03*
X138430000Y-96012000D03*
X140970000Y-96012000D03*
X143510000Y-96012000D03*
X143764000Y-109601000D03*
X137820400Y-107188000D03*
X141630400Y-107188000D03*
X141274800Y-105079800D03*
X143967200Y-102997000D03*
D18*
X145542000Y-95631000D02*
X145542000Y-101219000D01*
X145542000Y-101219000D02*
X145161000Y-101600000D01*
X140970000Y-96012000D02*
X138430000Y-96012000D01*
X143510000Y-96012000D02*
X140970000Y-96012000D01*
X147320000Y-94361000D02*
X146050000Y-94361000D01*
X145161000Y-96012000D02*
X143510000Y-96012000D01*
X145542000Y-95631000D02*
X145161000Y-96012000D01*
X145542000Y-94869000D02*
X145542000Y-95631000D01*
X146050000Y-94361000D02*
X145542000Y-94869000D01*
D19*
X143764000Y-109601000D02*
X143764000Y-112014000D01*
X143764000Y-112014000D02*
X143637000Y-112141000D01*
X143662400Y-112141000D02*
X140487400Y-112141000D01*
X140487400Y-112141000D02*
X139852400Y-112776000D01*
X139827000Y-112776000D02*
X139827000Y-114300000D01*
D20*
X141605000Y-107188000D02*
X137795000Y-107188000D01*
D18*
X141274800Y-106832400D02*
X141630400Y-107188000D01*
X141274800Y-105079800D02*
X141274800Y-106832400D01*
D20*
G36*
X149810000Y-116536000D02*
X132130000Y-116536000D01*
X132130000Y-96901000D01*
X132936655Y-96901000D01*
X133050729Y-97474489D01*
X133375585Y-97960670D01*
X133690366Y-98171000D01*
X133375585Y-98381330D01*
X133050729Y-98867511D01*
X132936655Y-99441000D01*
X133050729Y-100014489D01*
X133375585Y-100500670D01*
X133690366Y-100711000D01*
X133375585Y-100921330D01*
X133050729Y-101407511D01*
X132936655Y-101981000D01*
X133050729Y-102554489D01*
X133375585Y-103040670D01*
X133690366Y-103251000D01*
X133375585Y-103461330D01*
X133050729Y-103947511D01*
X132936655Y-104521000D01*
X133050729Y-105094489D01*
X133375585Y-105580670D01*
X133690366Y-105791000D01*
X133375585Y-106001330D01*
X133050729Y-106487511D01*
X132936655Y-107061000D01*
X133050729Y-107634489D01*
X133375585Y-108120670D01*
X133690366Y-108331000D01*
X133375585Y-108541330D01*
X133050729Y-109027511D01*
X132936655Y-109601000D01*
X133050729Y-110174489D01*
X133375585Y-110660670D01*
X133690366Y-110871000D01*
X133375585Y-111081330D01*
X133050729Y-111567511D01*
X132936655Y-112141000D01*
X133050729Y-112714489D01*
X133375585Y-113200670D01*
X133861766Y-113525526D01*
X134435255Y-113639600D01*
X134804745Y-113639600D01*
X135378234Y-113525526D01*
X135739702Y-113284000D01*
X138163560Y-113284000D01*
X138163560Y-115316000D01*
X138210537Y-115558123D01*
X138350327Y-115770927D01*
X138561360Y-115913377D01*
X138811000Y-115963440D01*
X140843000Y-115963440D01*
X141085123Y-115916463D01*
X141297927Y-115776673D01*
X141396164Y-115631140D01*
X141735190Y-115857670D01*
X142367000Y-115983345D01*
X142998810Y-115857670D01*
X143534433Y-115499778D01*
X143892325Y-114964155D01*
X144018000Y-114332345D01*
X144018000Y-114267655D01*
X143892325Y-113635845D01*
X143732740Y-113397009D01*
X144148408Y-113314327D01*
X144560426Y-113039026D01*
X144611573Y-112962479D01*
X144662026Y-112912026D01*
X144937314Y-112500026D01*
X145712642Y-112500026D01*
X145715291Y-112515791D01*
X145969268Y-113043036D01*
X146405680Y-113432954D01*
X146958087Y-113626184D01*
X147193000Y-113481924D01*
X147193000Y-112268000D01*
X147447000Y-112268000D01*
X147447000Y-113481924D01*
X147681913Y-113626184D01*
X148234320Y-113432954D01*
X148670732Y-113043036D01*
X148924709Y-112515791D01*
X148927358Y-112500026D01*
X148806217Y-112268000D01*
X147447000Y-112268000D01*
X147193000Y-112268000D01*
X147193000Y-112268000D01*
X145833783Y-112268000D01*
X145712642Y-112500026D01*
X144937314Y-112500026D01*
X144937327Y-112500008D01*
X145034000Y-112014000D01*
X145034000Y-109601000D01*
X144937327Y-109114992D01*
X144662026Y-108702974D01*
X144250008Y-108427673D01*
X143764000Y-108331000D01*
X143277992Y-108427673D01*
X142865974Y-108702974D01*
X142590673Y-109114992D01*
X142494000Y-109601000D01*
X142494000Y-110871000D01*
X140487405Y-110871000D01*
X140487400Y-110870999D01*
X140001392Y-110967673D01*
X139589374Y-111242974D01*
X139589372Y-111242977D01*
X139005521Y-111826827D01*
X138928974Y-111877974D01*
X138653673Y-112289992D01*
X138575654Y-112682222D01*
X138568877Y-112683537D01*
X138356073Y-112823327D01*
X138213623Y-113034360D01*
X138163560Y-113284000D01*
X135739702Y-113284000D01*
X135864415Y-113200670D01*
X136189271Y-112714489D01*
X136303345Y-112141000D01*
X136189271Y-111567511D01*
X135864415Y-111081330D01*
X135549634Y-110871000D01*
X135864415Y-110660670D01*
X136189271Y-110174489D01*
X136303345Y-109601000D01*
X136189271Y-109027511D01*
X135864415Y-108541330D01*
X135549634Y-108331000D01*
X135864415Y-108120670D01*
X136189271Y-107634489D01*
X136303345Y-107061000D01*
X136189271Y-106487511D01*
X135864415Y-106001330D01*
X135549634Y-105791000D01*
X135864415Y-105580670D01*
X136189271Y-105094489D01*
X136303345Y-104521000D01*
X136189271Y-103947511D01*
X135864415Y-103461330D01*
X135549634Y-103251000D01*
X135864415Y-103040670D01*
X136189271Y-102554489D01*
X136303345Y-101981000D01*
X136189271Y-101407511D01*
X135864415Y-100921330D01*
X135549634Y-100711000D01*
X135864415Y-100500670D01*
X136189271Y-100014489D01*
X136303345Y-99441000D01*
X136189271Y-98867511D01*
X135864415Y-98381330D01*
X135549634Y-98171000D01*
X135864415Y-97960670D01*
X136189271Y-97474489D01*
X136303345Y-96901000D01*
X136189271Y-96327511D01*
X135864415Y-95841330D01*
X135848633Y-95830785D01*
X135878123Y-95825063D01*
X136090927Y-95685273D01*
X136233377Y-95474240D01*
X136283440Y-95224600D01*
X136283440Y-93569641D01*
X136931400Y-93569641D01*
X136931400Y-93628359D01*
X137045474Y-94201848D01*
X137370330Y-94688029D01*
X137856511Y-95012885D01*
X138147290Y-95070724D01*
X137876788Y-95182493D01*
X137601460Y-95457341D01*
X137452270Y-95816630D01*
X137451931Y-96205663D01*
X137600493Y-96565212D01*
X137875341Y-96840540D01*
X138234630Y-96989730D01*
X138623663Y-96990069D01*
X138983212Y-96841507D01*
X139076281Y-96748600D01*
X140323561Y-96748600D01*
X140415341Y-96840540D01*
X140774630Y-96989730D01*
X141163663Y-96990069D01*
X141523212Y-96841507D01*
X141616281Y-96748600D01*
X142863561Y-96748600D01*
X142955341Y-96840540D01*
X143314630Y-96989730D01*
X143703663Y-96990069D01*
X144063212Y-96841507D01*
X144156281Y-96748600D01*
X144805400Y-96748600D01*
X144805400Y-100688842D01*
X144607788Y-100770493D01*
X144332460Y-101045341D01*
X144183270Y-101404630D01*
X144182931Y-101793663D01*
X144331493Y-102153212D01*
X144606341Y-102428540D01*
X144965630Y-102577730D01*
X145354663Y-102578069D01*
X145714212Y-102429507D01*
X145723937Y-102419799D01*
X145750729Y-102554489D01*
X146075585Y-103040670D01*
X146390366Y-103251000D01*
X146075585Y-103461330D01*
X145750729Y-103947511D01*
X145636655Y-104521000D01*
X145750729Y-105094489D01*
X146075585Y-105580670D01*
X146390366Y-105791000D01*
X146075585Y-106001330D01*
X145750729Y-106487511D01*
X145636655Y-107061000D01*
X145750729Y-107634489D01*
X146075585Y-108120670D01*
X146390366Y-108331000D01*
X146075585Y-108541330D01*
X145750729Y-109027511D01*
X145636655Y-109601000D01*
X145750729Y-110174489D01*
X146075585Y-110660670D01*
X146385069Y-110867461D01*
X145969268Y-111238964D01*
X145715291Y-111766209D01*
X145712642Y-111781974D01*
X145833783Y-112014000D01*
X147193000Y-112014000D01*
X147193000Y-111994000D01*
X147447000Y-111994000D01*
X147447000Y-112014000D01*
X148806217Y-112014000D01*
X148927358Y-111781974D01*
X148924709Y-111766209D01*
X148670732Y-111238964D01*
X148254931Y-110867461D01*
X148564415Y-110660670D01*
X148889271Y-110174489D01*
X149003345Y-109601000D01*
X148889271Y-109027511D01*
X148564415Y-108541330D01*
X148249634Y-108331000D01*
X148564415Y-108120670D01*
X148889271Y-107634489D01*
X149003345Y-107061000D01*
X148889271Y-106487511D01*
X148564415Y-106001330D01*
X148249634Y-105791000D01*
X148564415Y-105580670D01*
X148889271Y-105094489D01*
X149003345Y-104521000D01*
X148889271Y-103947511D01*
X148564415Y-103461330D01*
X148249634Y-103251000D01*
X148564415Y-103040670D01*
X148889271Y-102554489D01*
X149003345Y-101981000D01*
X148889271Y-101407511D01*
X148564415Y-100921330D01*
X148249634Y-100711000D01*
X148564415Y-100500670D01*
X148889271Y-100014489D01*
X149003345Y-99441000D01*
X148889271Y-98867511D01*
X148564415Y-98381330D01*
X148249634Y-98171000D01*
X148564415Y-97960670D01*
X148889271Y-97474489D01*
X149003345Y-96901000D01*
X148889271Y-96327511D01*
X148564415Y-95841330D01*
X148548633Y-95830785D01*
X148578123Y-95825063D01*
X148790927Y-95685273D01*
X148933377Y-95474240D01*
X148983440Y-95224600D01*
X148983440Y-93497400D01*
X148936463Y-93255277D01*
X148796673Y-93042473D01*
X148585640Y-92900023D01*
X148336000Y-92849960D01*
X146304000Y-92849960D01*
X146061877Y-92896937D01*
X145849073Y-93036727D01*
X145706623Y-93247760D01*
X145656560Y-93497400D01*
X145656560Y-93755009D01*
X145529145Y-93840145D01*
X145021145Y-94348145D01*
X144861470Y-94587115D01*
X144805400Y-94869000D01*
X144805400Y-95275400D01*
X144156439Y-95275400D01*
X144064659Y-95183460D01*
X143793016Y-95070664D01*
X144083489Y-95012885D01*
X144569670Y-94688029D01*
X144894526Y-94201848D01*
X145008600Y-93628359D01*
X145008600Y-93569641D01*
X144894526Y-92996152D01*
X144579474Y-92524644D01*
X144733299Y-92460927D01*
X144911927Y-92282298D01*
X145008600Y-92048909D01*
X145008600Y-91344750D01*
X144849850Y-91186000D01*
X143637000Y-91186000D01*
X143637000Y-91206000D01*
X143383000Y-91206000D01*
X143383000Y-91186000D01*
X141097000Y-91186000D01*
X141097000Y-91206000D01*
X140843000Y-91206000D01*
X140843000Y-91186000D01*
X138557000Y-91186000D01*
X138557000Y-91206000D01*
X138303000Y-91206000D01*
X138303000Y-91186000D01*
X137095531Y-91186000D01*
X136975032Y-91418027D01*
X137223179Y-91947490D01*
X137641161Y-92329008D01*
X137370330Y-92509971D01*
X137045474Y-92996152D01*
X136931400Y-93569641D01*
X136283440Y-93569641D01*
X136283440Y-93497400D01*
X136236463Y-93255277D01*
X136096673Y-93042473D01*
X135885640Y-92900023D01*
X135636000Y-92849960D01*
X133604000Y-92849960D01*
X133361877Y-92896937D01*
X133149073Y-93036727D01*
X133006623Y-93247760D01*
X132956560Y-93497400D01*
X132956560Y-95224600D01*
X133003537Y-95466723D01*
X133143327Y-95679527D01*
X133354360Y-95821977D01*
X133392963Y-95829718D01*
X133375585Y-95841330D01*
X133050729Y-96327511D01*
X132936655Y-96901000D01*
X132130000Y-96901000D01*
X132130000Y-90699973D01*
X136975032Y-90699973D01*
X137095531Y-90932000D01*
X138303000Y-90932000D01*
X138303000Y-89725183D01*
X138557000Y-89725183D01*
X138557000Y-90932000D01*
X140843000Y-90932000D01*
X140843000Y-89725183D01*
X141097000Y-89725183D01*
X141097000Y-90932000D01*
X143383000Y-90932000D01*
X143383000Y-89719150D01*
X143637000Y-89719150D01*
X143637000Y-90932000D01*
X144849850Y-90932000D01*
X145008600Y-90773250D01*
X145008600Y-90069091D01*
X144911927Y-89835702D01*
X144733299Y-89657073D01*
X144499910Y-89560400D01*
X143795750Y-89560400D01*
X143637000Y-89719150D01*
X143383000Y-89719150D01*
X143383000Y-89719150D01*
X143224250Y-89560400D01*
X142520090Y-89560400D01*
X142286701Y-89657073D01*
X142108073Y-89835702D01*
X142026300Y-90033120D01*
X141744947Y-89776312D01*
X141329026Y-89604042D01*
X141097000Y-89725183D01*
X140843000Y-89725183D01*
X140843000Y-89725183D01*
X140610974Y-89604042D01*
X140195053Y-89776312D01*
X139763179Y-90170510D01*
X139700000Y-90305313D01*
X139636821Y-90170510D01*
X139204947Y-89776312D01*
X138789026Y-89604042D01*
X138557000Y-89725183D01*
X138303000Y-89725183D01*
X138303000Y-89725183D01*
X138070974Y-89604042D01*
X137655053Y-89776312D01*
X137223179Y-90170510D01*
X136975032Y-90699973D01*
X132130000Y-90699973D01*
X132130000Y-88696000D01*
X149810000Y-88696000D01*
X149810000Y-116536000D01*
X149810000Y-116536000D01*
G37*
X149810000Y-116536000D02*
X132130000Y-116536000D01*
X132130000Y-96901000D01*
X132936655Y-96901000D01*
X133050729Y-97474489D01*
X133375585Y-97960670D01*
X133690366Y-98171000D01*
X133375585Y-98381330D01*
X133050729Y-98867511D01*
X132936655Y-99441000D01*
X133050729Y-100014489D01*
X133375585Y-100500670D01*
X133690366Y-100711000D01*
X133375585Y-100921330D01*
X133050729Y-101407511D01*
X132936655Y-101981000D01*
X133050729Y-102554489D01*
X133375585Y-103040670D01*
X133690366Y-103251000D01*
X133375585Y-103461330D01*
X133050729Y-103947511D01*
X132936655Y-104521000D01*
X133050729Y-105094489D01*
X133375585Y-105580670D01*
X133690366Y-105791000D01*
X133375585Y-106001330D01*
X133050729Y-106487511D01*
X132936655Y-107061000D01*
X133050729Y-107634489D01*
X133375585Y-108120670D01*
X133690366Y-108331000D01*
X133375585Y-108541330D01*
X133050729Y-109027511D01*
X132936655Y-109601000D01*
X133050729Y-110174489D01*
X133375585Y-110660670D01*
X133690366Y-110871000D01*
X133375585Y-111081330D01*
X133050729Y-111567511D01*
X132936655Y-112141000D01*
X133050729Y-112714489D01*
X133375585Y-113200670D01*
X133861766Y-113525526D01*
X134435255Y-113639600D01*
X134804745Y-113639600D01*
X135378234Y-113525526D01*
X135739702Y-113284000D01*
X138163560Y-113284000D01*
X138163560Y-115316000D01*
X138210537Y-115558123D01*
X138350327Y-115770927D01*
X138561360Y-115913377D01*
X138811000Y-115963440D01*
X140843000Y-115963440D01*
X141085123Y-115916463D01*
X141297927Y-115776673D01*
X141396164Y-115631140D01*
X141735190Y-115857670D01*
X142367000Y-115983345D01*
X142998810Y-115857670D01*
X143534433Y-115499778D01*
X143892325Y-114964155D01*
X144018000Y-114332345D01*
X144018000Y-114267655D01*
X143892325Y-113635845D01*
X143732740Y-113397009D01*
X144148408Y-113314327D01*
X144560426Y-113039026D01*
X144611573Y-112962479D01*
X144662026Y-112912026D01*
X144937314Y-112500026D01*
X145712642Y-112500026D01*
X145715291Y-112515791D01*
X145969268Y-113043036D01*
X146405680Y-113432954D01*
X146958087Y-113626184D01*
X147193000Y-113481924D01*
X147193000Y-112268000D01*
X147447000Y-112268000D01*
X147447000Y-113481924D01*
X147681913Y-113626184D01*
X148234320Y-113432954D01*
X148670732Y-113043036D01*
X148924709Y-112515791D01*
X148927358Y-112500026D01*
X148806217Y-112268000D01*
X147447000Y-112268000D01*
X147193000Y-112268000D01*
X147193000Y-112268000D01*
X145833783Y-112268000D01*
X145712642Y-112500026D01*
X144937314Y-112500026D01*
X144937327Y-112500008D01*
X145034000Y-112014000D01*
X145034000Y-109601000D01*
X144937327Y-109114992D01*
X144662026Y-108702974D01*
X144250008Y-108427673D01*
X143764000Y-108331000D01*
X143277992Y-108427673D01*
X142865974Y-108702974D01*
X142590673Y-109114992D01*
X142494000Y-109601000D01*
X142494000Y-110871000D01*
X140487405Y-110871000D01*
X140487400Y-110870999D01*
X140001392Y-110967673D01*
X139589374Y-111242974D01*
X139589372Y-111242977D01*
X139005521Y-111826827D01*
X138928974Y-111877974D01*
X138653673Y-112289992D01*
X138575654Y-112682222D01*
X138568877Y-112683537D01*
X138356073Y-112823327D01*
X138213623Y-113034360D01*
X138163560Y-113284000D01*
X135739702Y-113284000D01*
X135864415Y-113200670D01*
X136189271Y-112714489D01*
X136303345Y-112141000D01*
X136189271Y-111567511D01*
X135864415Y-111081330D01*
X135549634Y-110871000D01*
X135864415Y-110660670D01*
X136189271Y-110174489D01*
X136303345Y-109601000D01*
X136189271Y-109027511D01*
X135864415Y-108541330D01*
X135549634Y-108331000D01*
X135864415Y-108120670D01*
X136189271Y-107634489D01*
X136303345Y-107061000D01*
X136189271Y-106487511D01*
X135864415Y-106001330D01*
X135549634Y-105791000D01*
X135864415Y-105580670D01*
X136189271Y-105094489D01*
X136303345Y-104521000D01*
X136189271Y-103947511D01*
X135864415Y-103461330D01*
X135549634Y-103251000D01*
X135864415Y-103040670D01*
X136189271Y-102554489D01*
X136303345Y-101981000D01*
X136189271Y-101407511D01*
X135864415Y-100921330D01*
X135549634Y-100711000D01*
X135864415Y-100500670D01*
X136189271Y-100014489D01*
X136303345Y-99441000D01*
X136189271Y-98867511D01*
X135864415Y-98381330D01*
X135549634Y-98171000D01*
X135864415Y-97960670D01*
X136189271Y-97474489D01*
X136303345Y-96901000D01*
X136189271Y-96327511D01*
X135864415Y-95841330D01*
X135848633Y-95830785D01*
X135878123Y-95825063D01*
X136090927Y-95685273D01*
X136233377Y-95474240D01*
X136283440Y-95224600D01*
X136283440Y-93569641D01*
X136931400Y-93569641D01*
X136931400Y-93628359D01*
X137045474Y-94201848D01*
X137370330Y-94688029D01*
X137856511Y-95012885D01*
X138147290Y-95070724D01*
X137876788Y-95182493D01*
X137601460Y-95457341D01*
X137452270Y-95816630D01*
X137451931Y-96205663D01*
X137600493Y-96565212D01*
X137875341Y-96840540D01*
X138234630Y-96989730D01*
X138623663Y-96990069D01*
X138983212Y-96841507D01*
X139076281Y-96748600D01*
X140323561Y-96748600D01*
X140415341Y-96840540D01*
X140774630Y-96989730D01*
X141163663Y-96990069D01*
X141523212Y-96841507D01*
X141616281Y-96748600D01*
X142863561Y-96748600D01*
X142955341Y-96840540D01*
X143314630Y-96989730D01*
X143703663Y-96990069D01*
X144063212Y-96841507D01*
X144156281Y-96748600D01*
X144805400Y-96748600D01*
X144805400Y-100688842D01*
X144607788Y-100770493D01*
X144332460Y-101045341D01*
X144183270Y-101404630D01*
X144182931Y-101793663D01*
X144331493Y-102153212D01*
X144606341Y-102428540D01*
X144965630Y-102577730D01*
X145354663Y-102578069D01*
X145714212Y-102429507D01*
X145723937Y-102419799D01*
X145750729Y-102554489D01*
X146075585Y-103040670D01*
X146390366Y-103251000D01*
X146075585Y-103461330D01*
X145750729Y-103947511D01*
X145636655Y-104521000D01*
X145750729Y-105094489D01*
X146075585Y-105580670D01*
X146390366Y-105791000D01*
X146075585Y-106001330D01*
X145750729Y-106487511D01*
X145636655Y-107061000D01*
X145750729Y-107634489D01*
X146075585Y-108120670D01*
X146390366Y-108331000D01*
X146075585Y-108541330D01*
X145750729Y-109027511D01*
X145636655Y-109601000D01*
X145750729Y-110174489D01*
X146075585Y-110660670D01*
X146385069Y-110867461D01*
X145969268Y-111238964D01*
X145715291Y-111766209D01*
X145712642Y-111781974D01*
X145833783Y-112014000D01*
X147193000Y-112014000D01*
X147193000Y-111994000D01*
X147447000Y-111994000D01*
X147447000Y-112014000D01*
X148806217Y-112014000D01*
X148927358Y-111781974D01*
X148924709Y-111766209D01*
X148670732Y-111238964D01*
X148254931Y-110867461D01*
X148564415Y-110660670D01*
X148889271Y-110174489D01*
X149003345Y-109601000D01*
X148889271Y-109027511D01*
X148564415Y-108541330D01*
X148249634Y-108331000D01*
X148564415Y-108120670D01*
X148889271Y-107634489D01*
X149003345Y-107061000D01*
X148889271Y-106487511D01*
X148564415Y-106001330D01*
X148249634Y-105791000D01*
X148564415Y-105580670D01*
X148889271Y-105094489D01*
X149003345Y-104521000D01*
X148889271Y-103947511D01*
X148564415Y-103461330D01*
X148249634Y-103251000D01*
X148564415Y-103040670D01*
X148889271Y-102554489D01*
X149003345Y-101981000D01*
X148889271Y-101407511D01*
X148564415Y-100921330D01*
X148249634Y-100711000D01*
X148564415Y-100500670D01*
X148889271Y-100014489D01*
X149003345Y-99441000D01*
X148889271Y-98867511D01*
X148564415Y-98381330D01*
X148249634Y-98171000D01*
X148564415Y-97960670D01*
X148889271Y-97474489D01*
X149003345Y-96901000D01*
X148889271Y-96327511D01*
X148564415Y-95841330D01*
X148548633Y-95830785D01*
X148578123Y-95825063D01*
X148790927Y-95685273D01*
X148933377Y-95474240D01*
X148983440Y-95224600D01*
X148983440Y-93497400D01*
X148936463Y-93255277D01*
X148796673Y-93042473D01*
X148585640Y-92900023D01*
X148336000Y-92849960D01*
X146304000Y-92849960D01*
X146061877Y-92896937D01*
X145849073Y-93036727D01*
X145706623Y-93247760D01*
X145656560Y-93497400D01*
X145656560Y-93755009D01*
X145529145Y-93840145D01*
X145021145Y-94348145D01*
X144861470Y-94587115D01*
X144805400Y-94869000D01*
X144805400Y-95275400D01*
X144156439Y-95275400D01*
X144064659Y-95183460D01*
X143793016Y-95070664D01*
X144083489Y-95012885D01*
X144569670Y-94688029D01*
X144894526Y-94201848D01*
X145008600Y-93628359D01*
X145008600Y-93569641D01*
X144894526Y-92996152D01*
X144579474Y-92524644D01*
X144733299Y-92460927D01*
X144911927Y-92282298D01*
X145008600Y-92048909D01*
X145008600Y-91344750D01*
X144849850Y-91186000D01*
X143637000Y-91186000D01*
X143637000Y-91206000D01*
X143383000Y-91206000D01*
X143383000Y-91186000D01*
X141097000Y-91186000D01*
X141097000Y-91206000D01*
X140843000Y-91206000D01*
X140843000Y-91186000D01*
X138557000Y-91186000D01*
X138557000Y-91206000D01*
X138303000Y-91206000D01*
X138303000Y-91186000D01*
X137095531Y-91186000D01*
X136975032Y-91418027D01*
X137223179Y-91947490D01*
X137641161Y-92329008D01*
X137370330Y-92509971D01*
X137045474Y-92996152D01*
X136931400Y-93569641D01*
X136283440Y-93569641D01*
X136283440Y-93497400D01*
X136236463Y-93255277D01*
X136096673Y-93042473D01*
X135885640Y-92900023D01*
X135636000Y-92849960D01*
X133604000Y-92849960D01*
X133361877Y-92896937D01*
X133149073Y-93036727D01*
X133006623Y-93247760D01*
X132956560Y-93497400D01*
X132956560Y-95224600D01*
X133003537Y-95466723D01*
X133143327Y-95679527D01*
X133354360Y-95821977D01*
X133392963Y-95829718D01*
X133375585Y-95841330D01*
X133050729Y-96327511D01*
X132936655Y-96901000D01*
X132130000Y-96901000D01*
X132130000Y-90699973D01*
X136975032Y-90699973D01*
X137095531Y-90932000D01*
X138303000Y-90932000D01*
X138303000Y-89725183D01*
X138557000Y-89725183D01*
X138557000Y-90932000D01*
X140843000Y-90932000D01*
X140843000Y-89725183D01*
X141097000Y-89725183D01*
X141097000Y-90932000D01*
X143383000Y-90932000D01*
X143383000Y-89719150D01*
X143637000Y-89719150D01*
X143637000Y-90932000D01*
X144849850Y-90932000D01*
X145008600Y-90773250D01*
X145008600Y-90069091D01*
X144911927Y-89835702D01*
X144733299Y-89657073D01*
X144499910Y-89560400D01*
X143795750Y-89560400D01*
X143637000Y-89719150D01*
X143383000Y-89719150D01*
X143383000Y-89719150D01*
X143224250Y-89560400D01*
X142520090Y-89560400D01*
X142286701Y-89657073D01*
X142108073Y-89835702D01*
X142026300Y-90033120D01*
X141744947Y-89776312D01*
X141329026Y-89604042D01*
X141097000Y-89725183D01*
X140843000Y-89725183D01*
X140843000Y-89725183D01*
X140610974Y-89604042D01*
X140195053Y-89776312D01*
X139763179Y-90170510D01*
X139700000Y-90305313D01*
X139636821Y-90170510D01*
X139204947Y-89776312D01*
X138789026Y-89604042D01*
X138557000Y-89725183D01*
X138303000Y-89725183D01*
X138303000Y-89725183D01*
X138070974Y-89604042D01*
X137655053Y-89776312D01*
X137223179Y-90170510D01*
X136975032Y-90699973D01*
X132130000Y-90699973D01*
X132130000Y-88696000D01*
X149810000Y-88696000D01*
X149810000Y-116536000D01*
M02*
