G04 #@! TF.FileFunction,Soldermask,Top*
%FSLAX46Y46*%
G04 Gerber Fmt 4.6, Leading zero omitted, Abs format (unit mm)*
G04 Created by KiCad (PCBNEW no-vcs-found-product) date Sat 25 Jul 2015 04:50:57 PM PDT*
%MOMM*%
G01*
G04 APERTURE LIST*
%ADD10C,0.100000*%
%ADD11R,1.700000X0.900000*%
%ADD12R,1.727200X1.727200*%
%ADD13O,1.727200X1.727200*%
%ADD14R,2.032000X1.727200*%
%ADD15O,2.032000X1.727200*%
%ADD16R,0.800100X0.800100*%
%ADD17R,0.900000X0.500000*%
%ADD18R,0.889000X0.305000*%
%ADD19R,0.600000X0.500000*%
%ADD20R,0.500000X0.600000*%
%ADD21R,2.032000X2.032000*%
%ADD22O,2.032000X2.032000*%
G04 APERTURE END LIST*
D10*
D11*
X143764000Y-108278000D03*
X143764000Y-111178000D03*
D12*
X143510000Y-91059000D03*
D13*
X143510000Y-93599000D03*
X140970000Y-91059000D03*
X140970000Y-93599000D03*
X138430000Y-91059000D03*
X138430000Y-93599000D03*
D14*
X134620000Y-94361000D03*
D15*
X134620000Y-96901000D03*
X134620000Y-99441000D03*
X134620000Y-101981000D03*
X134620000Y-104521000D03*
X134620000Y-107061000D03*
X134620000Y-109601000D03*
X134620000Y-112141000D03*
D14*
X147320000Y-94361000D03*
D15*
X147320000Y-96901000D03*
X147320000Y-99441000D03*
X147320000Y-101981000D03*
X147320000Y-104521000D03*
X147320000Y-107061000D03*
X147320000Y-109601000D03*
X147320000Y-112141000D03*
D16*
X140688060Y-110157300D03*
X140688060Y-108257300D03*
X138689080Y-109207300D03*
D17*
X143510000Y-97294000D03*
X143510000Y-98794000D03*
X140970000Y-97294000D03*
X140970000Y-98794000D03*
X138430000Y-97294000D03*
X138430000Y-98794000D03*
D18*
X142497200Y-105076400D03*
X142497200Y-104576400D03*
X142497200Y-104076400D03*
X142497200Y-103576400D03*
X142497200Y-103076400D03*
X142497200Y-102576400D03*
X142497200Y-102076400D03*
X138157200Y-105076400D03*
X138157200Y-104576400D03*
X138157200Y-104076400D03*
X138157200Y-103576400D03*
X138157200Y-103076400D03*
X138157200Y-102576400D03*
X138157200Y-101576400D03*
X138157200Y-102076400D03*
X142497200Y-101576400D03*
D19*
X140237300Y-111620300D03*
X139137300Y-111620300D03*
D20*
X145161000Y-102726400D03*
X145161000Y-103826400D03*
D21*
X139827000Y-114300000D03*
D22*
X142367000Y-114300000D03*
M02*
