G04 #@! TF.FileFunction,Legend,Bot*
%FSLAX46Y46*%
G04 Gerber Fmt 4.6, Leading zero omitted, Abs format (unit mm)*
G04 Created by KiCad (PCBNEW no-vcs-found-product) date Wed 15 Jul 2015 02:34:46 AM PDT*
%MOMM*%
G01*
G04 APERTURE LIST*
%ADD10C,0.100000*%
%ADD11C,0.254000*%
G04 APERTURE END LIST*
D10*
D11*
X140591419Y-96961476D02*
X140107610Y-96622810D01*
X140591419Y-96380905D02*
X139575419Y-96380905D01*
X139575419Y-96767952D01*
X139623800Y-96864714D01*
X139672181Y-96913095D01*
X139768943Y-96961476D01*
X139914086Y-96961476D01*
X140010848Y-96913095D01*
X140059229Y-96864714D01*
X140107610Y-96767952D01*
X140107610Y-96380905D01*
X140543038Y-97783952D02*
X140591419Y-97687190D01*
X140591419Y-97493667D01*
X140543038Y-97396905D01*
X140446276Y-97348524D01*
X140059229Y-97348524D01*
X139962467Y-97396905D01*
X139914086Y-97493667D01*
X139914086Y-97687190D01*
X139962467Y-97783952D01*
X140059229Y-97832333D01*
X140155990Y-97832333D01*
X140252752Y-97348524D01*
X139914086Y-98171000D02*
X140591419Y-98412905D01*
X139914086Y-98654809D01*
X140494657Y-99041857D02*
X140543038Y-99090238D01*
X140591419Y-99041857D01*
X140543038Y-98993476D01*
X140494657Y-99041857D01*
X140591419Y-99041857D01*
X140301133Y-100251381D02*
X140301133Y-100735190D01*
X140591419Y-100154619D02*
X139575419Y-100493286D01*
X140591419Y-100831952D01*
X140543038Y-101219000D02*
X140591419Y-101219000D01*
X140688181Y-101170619D01*
X140736562Y-101122238D01*
X139575419Y-102718809D02*
X140301133Y-102718809D01*
X140446276Y-102670429D01*
X140543038Y-102573667D01*
X140591419Y-102428524D01*
X140591419Y-102331762D01*
X139914086Y-103638047D02*
X140591419Y-103638047D01*
X139914086Y-103202619D02*
X140446276Y-103202619D01*
X140543038Y-103251000D01*
X140591419Y-103347762D01*
X140591419Y-103492904D01*
X140543038Y-103589666D01*
X140494657Y-103638047D01*
X140591419Y-104267000D02*
X140543038Y-104170238D01*
X140446276Y-104121857D01*
X139575419Y-104121857D01*
X139914086Y-104557285D02*
X140591419Y-104799190D01*
X139914086Y-105041094D02*
X140591419Y-104799190D01*
X140833324Y-104702428D01*
X140881705Y-104654047D01*
X140930086Y-104557285D01*
X139672181Y-106153856D02*
X139623800Y-106202237D01*
X139575419Y-106298999D01*
X139575419Y-106540903D01*
X139623800Y-106637665D01*
X139672181Y-106686046D01*
X139768943Y-106734427D01*
X139865705Y-106734427D01*
X140010848Y-106686046D01*
X140591419Y-106105475D01*
X140591419Y-106734427D01*
X139575419Y-107363380D02*
X139575419Y-107460141D01*
X139623800Y-107556903D01*
X139672181Y-107605284D01*
X139768943Y-107653665D01*
X139962467Y-107702046D01*
X140204371Y-107702046D01*
X140397895Y-107653665D01*
X140494657Y-107605284D01*
X140543038Y-107556903D01*
X140591419Y-107460141D01*
X140591419Y-107363380D01*
X140543038Y-107266618D01*
X140494657Y-107218237D01*
X140397895Y-107169856D01*
X140204371Y-107121475D01*
X139962467Y-107121475D01*
X139768943Y-107169856D01*
X139672181Y-107218237D01*
X139623800Y-107266618D01*
X139575419Y-107363380D01*
X140591419Y-108669665D02*
X140591419Y-108089094D01*
X140591419Y-108379380D02*
X139575419Y-108379380D01*
X139720562Y-108282618D01*
X139817324Y-108185856D01*
X139865705Y-108089094D01*
X139575419Y-109588903D02*
X139575419Y-109105094D01*
X140059229Y-109056713D01*
X140010848Y-109105094D01*
X139962467Y-109201856D01*
X139962467Y-109443760D01*
X140010848Y-109540522D01*
X140059229Y-109588903D01*
X140155990Y-109637284D01*
X140397895Y-109637284D01*
X140494657Y-109588903D01*
X140543038Y-109540522D01*
X140591419Y-109443760D01*
X140591419Y-109201856D01*
X140543038Y-109105094D01*
X140494657Y-109056713D01*
X142267819Y-96380905D02*
X141251819Y-96380905D01*
X142267819Y-96816333D02*
X141735629Y-96816333D01*
X141638867Y-96767952D01*
X141590486Y-96671190D01*
X141590486Y-96526048D01*
X141638867Y-96429286D01*
X141687248Y-96380905D01*
X141590486Y-97155000D02*
X141590486Y-97542048D01*
X141251819Y-97300143D02*
X142122676Y-97300143D01*
X142219438Y-97348524D01*
X142267819Y-97445286D01*
X142267819Y-97542048D01*
X141590486Y-97735571D02*
X141590486Y-98122619D01*
X141251819Y-97880714D02*
X142122676Y-97880714D01*
X142219438Y-97929095D01*
X142267819Y-98025857D01*
X142267819Y-98122619D01*
X141590486Y-98461285D02*
X142606486Y-98461285D01*
X141638867Y-98461285D02*
X141590486Y-98558047D01*
X141590486Y-98751570D01*
X141638867Y-98848332D01*
X141687248Y-98896713D01*
X141784010Y-98945094D01*
X142074295Y-98945094D01*
X142171057Y-98896713D01*
X142219438Y-98848332D01*
X142267819Y-98751570D01*
X142267819Y-98558047D01*
X142219438Y-98461285D01*
X142171057Y-99380523D02*
X142219438Y-99428904D01*
X142267819Y-99380523D01*
X142219438Y-99332142D01*
X142171057Y-99380523D01*
X142267819Y-99380523D01*
X141638867Y-99380523D02*
X141687248Y-99428904D01*
X141735629Y-99380523D01*
X141687248Y-99332142D01*
X141638867Y-99380523D01*
X141735629Y-99380523D01*
X141203438Y-100590047D02*
X142509724Y-99719190D01*
X141203438Y-101654428D02*
X142509724Y-100783571D01*
X141590486Y-101896333D02*
X142267819Y-102089857D01*
X141784010Y-102283380D01*
X142267819Y-102476904D01*
X141590486Y-102670428D01*
X141590486Y-102960714D02*
X142267819Y-103154238D01*
X141784010Y-103347761D01*
X142267819Y-103541285D01*
X141590486Y-103734809D01*
X141590486Y-104025095D02*
X142267819Y-104218619D01*
X141784010Y-104412142D01*
X142267819Y-104605666D01*
X141590486Y-104799190D01*
X142171057Y-105186238D02*
X142219438Y-105234619D01*
X142267819Y-105186238D01*
X142219438Y-105137857D01*
X142171057Y-105186238D01*
X142267819Y-105186238D01*
X141590486Y-105670048D02*
X142267819Y-105670048D01*
X141687248Y-105670048D02*
X141638867Y-105718429D01*
X141590486Y-105815191D01*
X141590486Y-105960333D01*
X141638867Y-106057095D01*
X141735629Y-106105476D01*
X142267819Y-106105476D01*
X142219438Y-106976333D02*
X142267819Y-106879571D01*
X142267819Y-106686048D01*
X142219438Y-106589286D01*
X142122676Y-106540905D01*
X141735629Y-106540905D01*
X141638867Y-106589286D01*
X141590486Y-106686048D01*
X141590486Y-106879571D01*
X141638867Y-106976333D01*
X141735629Y-107024714D01*
X141832390Y-107024714D01*
X141929152Y-106540905D01*
X142267819Y-107605286D02*
X142219438Y-107508524D01*
X142122676Y-107460143D01*
X141251819Y-107460143D01*
X142267819Y-108137476D02*
X142219438Y-108040714D01*
X142122676Y-107992333D01*
X141251819Y-107992333D01*
X141590486Y-108959951D02*
X142267819Y-108959951D01*
X141590486Y-108524523D02*
X142122676Y-108524523D01*
X142219438Y-108572904D01*
X142267819Y-108669666D01*
X142267819Y-108814808D01*
X142219438Y-108911570D01*
X142171057Y-108959951D01*
X142267819Y-109443761D02*
X141590486Y-109443761D01*
X141687248Y-109443761D02*
X141638867Y-109492142D01*
X141590486Y-109588904D01*
X141590486Y-109734046D01*
X141638867Y-109830808D01*
X141735629Y-109879189D01*
X142267819Y-109879189D01*
X141735629Y-109879189D02*
X141638867Y-109927570D01*
X141590486Y-110024332D01*
X141590486Y-110169475D01*
X141638867Y-110266237D01*
X141735629Y-110314618D01*
X142267819Y-110314618D01*
X141590486Y-110798428D02*
X142606486Y-110798428D01*
X141638867Y-110798428D02*
X141590486Y-110895190D01*
X141590486Y-111088713D01*
X141638867Y-111185475D01*
X141687248Y-111233856D01*
X141784010Y-111282237D01*
X142074295Y-111282237D01*
X142171057Y-111233856D01*
X142219438Y-111185475D01*
X142267819Y-111088713D01*
X142267819Y-110895190D01*
X142219438Y-110798428D01*
X142171057Y-111717666D02*
X142219438Y-111766047D01*
X142267819Y-111717666D01*
X142219438Y-111669285D01*
X142171057Y-111717666D01*
X142267819Y-111717666D01*
X141590486Y-112201476D02*
X142267819Y-112201476D01*
X141687248Y-112201476D02*
X141638867Y-112249857D01*
X141590486Y-112346619D01*
X141590486Y-112491761D01*
X141638867Y-112588523D01*
X141735629Y-112636904D01*
X142267819Y-112636904D01*
X142219438Y-113507761D02*
X142267819Y-113410999D01*
X142267819Y-113217476D01*
X142219438Y-113120714D01*
X142122676Y-113072333D01*
X141735629Y-113072333D01*
X141638867Y-113120714D01*
X141590486Y-113217476D01*
X141590486Y-113410999D01*
X141638867Y-113507761D01*
X141735629Y-113556142D01*
X141832390Y-113556142D01*
X141929152Y-113072333D01*
X141590486Y-113846428D02*
X141590486Y-114233476D01*
X141251819Y-113991571D02*
X142122676Y-113991571D01*
X142219438Y-114039952D01*
X142267819Y-114136714D01*
X142267819Y-114233476D01*
X141203438Y-115297856D02*
X142509724Y-114426999D01*
M02*
