G04 #@! TF.FileFunction,Legend,Top*
%FSLAX46Y46*%
G04 Gerber Fmt 4.6, Leading zero omitted, Abs format (unit mm)*
G04 Created by KiCad (PCBNEW no-vcs-found-product) date Wed 15 Jul 2015 01:59:35 AM PDT*
%MOMM*%
G01*
G04 APERTURE LIST*
%ADD10C,0.100000*%
%ADD11C,0.150000*%
G04 APERTURE END LIST*
D10*
D11*
X144077000Y-110760000D02*
X144077000Y-112760000D01*
X141927000Y-112760000D02*
X141927000Y-110760000D01*
X142240000Y-89789000D02*
X137160000Y-89789000D01*
X145060000Y-89509000D02*
X145060000Y-91059000D01*
X144780000Y-92329000D02*
X142240000Y-92329000D01*
X142240000Y-92329000D02*
X142240000Y-89789000D01*
X137160000Y-89789000D02*
X137160000Y-94869000D01*
X137160000Y-94869000D02*
X142240000Y-94869000D01*
X145060000Y-89509000D02*
X143510000Y-89509000D01*
X144780000Y-94869000D02*
X144780000Y-92329000D01*
X142240000Y-94869000D02*
X144780000Y-94869000D01*
X135890000Y-95631000D02*
X135890000Y-113411000D01*
X135890000Y-113411000D02*
X133350000Y-113411000D01*
X133350000Y-113411000D02*
X133350000Y-95631000D01*
X136170000Y-92811000D02*
X136170000Y-94361000D01*
X135890000Y-95631000D02*
X133350000Y-95631000D01*
X133070000Y-94361000D02*
X133070000Y-92811000D01*
X133070000Y-92811000D02*
X136170000Y-92811000D01*
X148590000Y-95631000D02*
X148590000Y-113411000D01*
X148590000Y-113411000D02*
X146050000Y-113411000D01*
X146050000Y-113411000D02*
X146050000Y-95631000D01*
X148870000Y-92811000D02*
X148870000Y-94361000D01*
X148590000Y-95631000D02*
X146050000Y-95631000D01*
X145770000Y-94361000D02*
X145770000Y-92811000D01*
X145770000Y-92811000D02*
X148870000Y-92811000D01*
X138287760Y-110968840D02*
X138287760Y-111017100D01*
X138988800Y-113767820D02*
X138287760Y-113767820D01*
X138287760Y-113767820D02*
X138287760Y-113518900D01*
X138287760Y-110968840D02*
X138287760Y-110768180D01*
X138287760Y-110768180D02*
X138988800Y-110768180D01*
X142835000Y-98544000D02*
X142835000Y-97544000D01*
X144185000Y-97544000D02*
X144185000Y-98544000D01*
X140295000Y-98544000D02*
X140295000Y-97544000D01*
X141645000Y-97544000D02*
X141645000Y-98544000D01*
X137755000Y-98544000D02*
X137755000Y-97544000D01*
X139105000Y-97544000D02*
X139105000Y-98544000D01*
X140092200Y-101676400D02*
G75*
G03X140092200Y-101676400I-200000J0D01*
G01*
X139452200Y-101256400D02*
X142472200Y-101256400D01*
X142472200Y-101256400D02*
X142472200Y-105286400D01*
X142472200Y-105286400D02*
X139452200Y-105286400D01*
X139452200Y-105286400D02*
X139452200Y-101256400D01*
X143978334Y-109291381D02*
X143645000Y-108815190D01*
X143406905Y-109291381D02*
X143406905Y-108291381D01*
X143787858Y-108291381D01*
X143883096Y-108339000D01*
X143930715Y-108386619D01*
X143978334Y-108481857D01*
X143978334Y-108624714D01*
X143930715Y-108719952D01*
X143883096Y-108767571D01*
X143787858Y-108815190D01*
X143406905Y-108815190D01*
X144930715Y-109291381D02*
X144359286Y-109291381D01*
X144645000Y-109291381D02*
X144645000Y-108291381D01*
X144549762Y-108434238D01*
X144454524Y-108529476D01*
X144359286Y-108577095D01*
X134897905Y-90368381D02*
X134897905Y-89368381D01*
X135278858Y-89368381D01*
X135374096Y-89416000D01*
X135421715Y-89463619D01*
X135469334Y-89558857D01*
X135469334Y-89701714D01*
X135421715Y-89796952D01*
X135374096Y-89844571D01*
X135278858Y-89892190D01*
X134897905Y-89892190D01*
X135802667Y-89368381D02*
X136421715Y-89368381D01*
X136088381Y-89749333D01*
X136231239Y-89749333D01*
X136326477Y-89796952D01*
X136374096Y-89844571D01*
X136421715Y-89939810D01*
X136421715Y-90177905D01*
X136374096Y-90273143D01*
X136326477Y-90320762D01*
X136231239Y-90368381D01*
X135945524Y-90368381D01*
X135850286Y-90320762D01*
X135802667Y-90273143D01*
X133881905Y-92400381D02*
X133881905Y-91400381D01*
X134262858Y-91400381D01*
X134358096Y-91448000D01*
X134405715Y-91495619D01*
X134453334Y-91590857D01*
X134453334Y-91733714D01*
X134405715Y-91828952D01*
X134358096Y-91876571D01*
X134262858Y-91924190D01*
X133881905Y-91924190D01*
X135405715Y-92400381D02*
X134834286Y-92400381D01*
X135120000Y-92400381D02*
X135120000Y-91400381D01*
X135024762Y-91543238D01*
X134929524Y-91638476D01*
X134834286Y-91686095D01*
X146581905Y-92400381D02*
X146581905Y-91400381D01*
X146962858Y-91400381D01*
X147058096Y-91448000D01*
X147105715Y-91495619D01*
X147153334Y-91590857D01*
X147153334Y-91733714D01*
X147105715Y-91828952D01*
X147058096Y-91876571D01*
X146962858Y-91924190D01*
X146581905Y-91924190D01*
X147534286Y-91495619D02*
X147581905Y-91448000D01*
X147677143Y-91400381D01*
X147915239Y-91400381D01*
X148010477Y-91448000D01*
X148058096Y-91495619D01*
X148105715Y-91590857D01*
X148105715Y-91686095D01*
X148058096Y-91828952D01*
X147486667Y-92400381D01*
X148105715Y-92400381D01*
X138842762Y-110402619D02*
X138747524Y-110355000D01*
X138652286Y-110259762D01*
X138509429Y-110116905D01*
X138414190Y-110069286D01*
X138318952Y-110069286D01*
X138366571Y-110307381D02*
X138271333Y-110259762D01*
X138176095Y-110164524D01*
X138128476Y-109974048D01*
X138128476Y-109640714D01*
X138176095Y-109450238D01*
X138271333Y-109355000D01*
X138366571Y-109307381D01*
X138557048Y-109307381D01*
X138652286Y-109355000D01*
X138747524Y-109450238D01*
X138795143Y-109640714D01*
X138795143Y-109974048D01*
X138747524Y-110164524D01*
X138652286Y-110259762D01*
X138557048Y-110307381D01*
X138366571Y-110307381D01*
X139747524Y-110307381D02*
X139176095Y-110307381D01*
X139461809Y-110307381D02*
X139461809Y-109307381D01*
X139366571Y-109450238D01*
X139271333Y-109545476D01*
X139176095Y-109593095D01*
X143851334Y-100528381D02*
X143518000Y-100052190D01*
X143279905Y-100528381D02*
X143279905Y-99528381D01*
X143660858Y-99528381D01*
X143756096Y-99576000D01*
X143803715Y-99623619D01*
X143851334Y-99718857D01*
X143851334Y-99861714D01*
X143803715Y-99956952D01*
X143756096Y-100004571D01*
X143660858Y-100052190D01*
X143279905Y-100052190D01*
X144232286Y-99623619D02*
X144279905Y-99576000D01*
X144375143Y-99528381D01*
X144613239Y-99528381D01*
X144708477Y-99576000D01*
X144756096Y-99623619D01*
X144803715Y-99718857D01*
X144803715Y-99814095D01*
X144756096Y-99956952D01*
X144184667Y-100528381D01*
X144803715Y-100528381D01*
X141311334Y-100528381D02*
X140978000Y-100052190D01*
X140739905Y-100528381D02*
X140739905Y-99528381D01*
X141120858Y-99528381D01*
X141216096Y-99576000D01*
X141263715Y-99623619D01*
X141311334Y-99718857D01*
X141311334Y-99861714D01*
X141263715Y-99956952D01*
X141216096Y-100004571D01*
X141120858Y-100052190D01*
X140739905Y-100052190D01*
X141644667Y-99528381D02*
X142263715Y-99528381D01*
X141930381Y-99909333D01*
X142073239Y-99909333D01*
X142168477Y-99956952D01*
X142216096Y-100004571D01*
X142263715Y-100099810D01*
X142263715Y-100337905D01*
X142216096Y-100433143D01*
X142168477Y-100480762D01*
X142073239Y-100528381D01*
X141787524Y-100528381D01*
X141692286Y-100480762D01*
X141644667Y-100433143D01*
X138771334Y-100528381D02*
X138438000Y-100052190D01*
X138199905Y-100528381D02*
X138199905Y-99528381D01*
X138580858Y-99528381D01*
X138676096Y-99576000D01*
X138723715Y-99623619D01*
X138771334Y-99718857D01*
X138771334Y-99861714D01*
X138723715Y-99956952D01*
X138676096Y-100004571D01*
X138580858Y-100052190D01*
X138199905Y-100052190D01*
X139628477Y-99861714D02*
X139628477Y-100528381D01*
X139390381Y-99480762D02*
X139152286Y-100195048D01*
X139771334Y-100195048D01*
X140258895Y-105649781D02*
X140258895Y-106459305D01*
X140306514Y-106554543D01*
X140354133Y-106602162D01*
X140449371Y-106649781D01*
X140639848Y-106649781D01*
X140735086Y-106602162D01*
X140782705Y-106554543D01*
X140830324Y-106459305D01*
X140830324Y-105649781D01*
X141830324Y-106649781D02*
X141258895Y-106649781D01*
X141544609Y-106649781D02*
X141544609Y-105649781D01*
X141449371Y-105792638D01*
X141354133Y-105887876D01*
X141258895Y-105935495D01*
M02*
